<svg width="556" height="440" viewBox="0 0 556 440" fill="none" xmlns="http://www.w3.org/2000/svg">
<path d="M278 440C427.488 440 548.671 433.291 548.671 425.016C548.671 416.741 427.488 410.033 278 410.033C128.513 410.033 7.3291 416.741 7.3291 425.016C7.3291 433.291 128.513 440 278 440Z" fill="#F5F5F5"/>
<path d="M546.116 293.808H9.8837L0 284.939H556L546.116 293.808Z" fill="#874C4C"/>
<path opacity="0.5" d="M546.116 293.808H9.8837L0 284.939H556L546.116 293.808Z" fill="white"/>
<path d="M500.132 298.586H55.8684L47.6738 293.808H508.327L500.132 298.586Z" fill="#874C4C"/>
<path opacity="0.5" d="M500.132 298.586H55.8684L47.6738 293.808H508.327L500.132 298.586Z" fill="black"/>
<path d="M52.3504 425.017H45.9707L65.7521 298.586H79.9773L52.3504 425.017Z" fill="#874C4C"/>
<path opacity="0.5" d="M52.3504 425.017H45.9707L65.7521 298.586H79.9773L52.3504 425.017Z" fill="black"/>
<path d="M86.8873 425.017H80.5215L100.303 298.586H114.528L86.8873 425.017Z" fill="#874C4C"/>
<path opacity="0.5" d="M86.8873 425.017H80.5215L100.303 298.586H114.528L86.8873 425.017Z" fill="black"/>
<path d="M503.649 425.017H510.029L490.248 298.586H476.022L503.649 425.017Z" fill="#874C4C"/>
<path opacity="0.5" d="M503.649 425.017H510.029L490.248 298.586H476.022L503.649 425.017Z" fill="black"/>
<path d="M469.113 425.017H475.478L455.697 298.586H441.472L469.113 425.017Z" fill="#874C4C"/>
<path opacity="0.5" d="M469.113 425.017H475.478L455.697 298.586H441.472L469.113 425.017Z" fill="black"/>
<path d="M242.095 0.00667112L260.117 1.15821C260.816 1.19913 261.49 1.42054 262.066 1.7985C262.642 2.17645 263.097 2.69653 263.384 3.30245L265.282 7.27327C265.694 8.13063 266.439 8.80402 267.362 9.1528C269.623 10.0337 271.815 11.0643 273.924 12.2368C274.765 12.7058 275.762 12.8571 276.716 12.6603L281.239 11.6544C281.92 11.5053 282.632 11.5336 283.297 11.7363C283.963 11.939 284.559 12.3086 285.022 12.8059L296.916 25.6979C297.377 26.1994 297.686 26.8105 297.809 27.4657C297.932 28.121 297.864 28.7956 297.614 29.4172L295.966 33.5204C295.619 34.404 295.644 35.3805 296.036 36.247C296.98 38.3984 297.764 40.6098 298.382 42.865C298.62 43.7786 299.226 44.5673 300.071 45.0622L304.007 47.3785C304.603 47.7269 305.087 48.223 305.407 48.8132C305.727 49.4034 305.87 50.0653 305.822 50.7273L304.622 67.8283C304.576 68.4905 304.34 69.1283 303.939 69.6721C303.538 70.2158 302.987 70.6448 302.346 70.9123L298.158 72.7124C297.26 73.1106 296.552 73.8146 296.176 74.6846C295.257 76.8301 294.175 78.9092 292.937 80.9055C292.438 81.7019 292.279 82.6486 292.49 83.5527L293.537 87.828C293.699 88.474 293.672 89.1498 293.458 89.782C293.244 90.4143 292.851 90.979 292.323 91.4149L278.726 102.692C278.2 103.13 277.558 103.423 276.869 103.539C276.18 103.656 275.47 103.592 274.817 103.354L270.475 101.792C269.556 101.448 268.533 101.448 267.614 101.792C265.343 102.683 263.011 103.426 260.634 104.016C259.673 104.247 258.843 104.821 258.316 105.617L255.873 109.35C255.503 109.915 254.977 110.373 254.352 110.676C253.727 110.979 253.028 111.116 252.327 111.071L234.305 109.932C233.607 109.888 232.934 109.666 232.359 109.288C231.784 108.911 231.327 108.392 231.038 107.788L229.14 103.817C228.728 102.96 227.983 102.286 227.06 101.938C224.799 101.057 222.607 100.026 220.499 98.8536C219.658 98.3833 218.66 98.232 217.707 98.4301L213.197 99.436C212.516 99.588 211.804 99.5611 211.137 99.3583C210.471 99.1554 209.875 98.7842 209.414 98.2845L197.506 85.3925C197.048 84.8896 196.741 84.2785 196.618 83.6239C196.495 82.9693 196.561 82.2953 196.808 81.6732L198.456 77.57C198.804 76.6911 198.779 75.7184 198.386 74.8566C197.445 72.7043 196.661 70.493 196.041 68.2386C195.802 67.325 195.196 66.5363 194.351 66.0414L190.415 63.7251C189.819 63.3768 189.335 62.8807 189.015 62.2905C188.695 61.7003 188.552 61.0384 188.6 60.3764L189.8 43.2754C189.849 42.6124 190.087 41.9744 190.487 41.429C190.888 40.8837 191.437 40.4514 192.076 40.1781L196.264 38.3913C197.168 38.0008 197.878 37.2942 198.246 36.4191C199.175 34.2714 200.262 32.1883 201.499 30.1849C201.997 29.3885 202.162 28.4437 201.96 27.5377L200.899 23.2624C200.738 22.6163 200.767 21.941 200.981 21.3091C201.195 20.6771 201.586 20.1123 202.113 19.6755L215.71 8.39834C216.236 7.95978 216.877 7.66521 217.566 7.54628C218.255 7.42735 218.964 7.48855 219.619 7.7233L223.961 9.28516C224.879 9.63625 225.904 9.63625 226.822 9.28516C229.091 8.3884 231.423 7.64532 233.802 7.0615C234.758 6.82735 235.586 6.26019 236.12 5.47316L238.563 1.74059C238.932 1.17637 239.455 0.717305 240.077 0.412048C240.699 0.106791 241.396 -0.0332844 242.095 0.00667112ZM213.128 53.4407C212.676 59.8381 214.235 66.2188 217.609 71.7759C220.982 77.3329 226.018 81.8166 232.079 84.6599C238.14 87.5031 244.954 88.5782 251.66 87.7492C258.366 86.9201 264.662 84.2241 269.751 80.0022C274.841 75.7803 278.495 70.2221 280.253 64.0307C282.01 57.8393 281.792 51.2927 279.625 45.2191C277.458 39.1454 273.44 33.8175 268.079 29.9092C262.718 26.0009 256.255 23.6878 249.508 23.2624C240.464 22.6958 231.553 25.5558 224.732 31.2142C217.91 36.8727 213.737 44.8667 213.128 53.4407Z" fill="#309BA2"/>
<path d="M313.528 72.2495L319.712 70.2641C320.039 70.1622 320.389 70.1453 320.726 70.2151C321.062 70.285 321.372 70.439 321.625 70.6612L322.644 71.5877C323.001 71.8912 323.462 72.0606 323.942 72.0642C324.792 72.0635 325.64 72.1166 326.483 72.223C326.726 72.2606 326.975 72.2519 327.214 72.1973C327.454 72.1428 327.68 72.0435 327.879 71.9054L329.023 71.1244C329.306 70.9366 329.636 70.8239 329.98 70.7983C330.323 70.7727 330.668 70.8351 330.978 70.9788L336.827 73.732C337.135 73.8752 337.396 74.0948 337.583 74.3674C337.77 74.6401 337.875 74.9557 337.888 75.2806V76.6042C337.906 77.0621 338.106 77.4968 338.446 77.8219C339.049 78.3887 339.608 78.9946 340.122 79.6352C340.414 79.9958 340.837 80.241 341.308 80.3235L342.704 80.5353C343.043 80.589 343.36 80.7296 343.621 80.9419C343.882 81.1543 344.077 81.4301 344.184 81.7398L346.278 87.6034C346.392 87.9118 346.414 88.244 346.343 88.5637C346.272 88.8834 346.109 89.1784 345.873 89.4167L344.896 90.3829C344.574 90.7202 344.395 91.1588 344.393 91.6139C344.394 92.4195 344.338 93.2242 344.226 94.0228C344.185 94.2527 344.192 94.4878 344.248 94.7149C344.303 94.9421 344.404 95.1566 344.547 95.3465L345.371 96.4318C345.574 96.6943 345.697 97.0049 345.727 97.3294C345.756 97.654 345.691 97.9799 345.538 98.2716L342.634 103.831C342.483 104.123 342.252 104.37 341.964 104.547C341.677 104.725 341.344 104.825 341.001 104.837H339.605C339.125 104.851 338.67 105.041 338.335 105.366C337.727 105.927 337.088 106.457 336.422 106.954C336.042 107.232 335.783 107.632 335.696 108.08L335.473 109.403C335.416 109.725 335.268 110.025 335.044 110.273C334.82 110.52 334.529 110.704 334.203 110.806L328.018 112.792C327.692 112.898 327.341 112.917 327.003 112.847C326.666 112.777 326.356 112.62 326.106 112.395L325.073 111.481C324.722 111.168 324.256 110.996 323.774 111.005C322.929 111.005 322.085 110.952 321.248 110.846C321.005 110.806 320.757 110.813 320.518 110.865C320.278 110.918 320.052 111.014 319.852 111.15L318.707 111.931C318.427 112.124 318.097 112.241 317.753 112.269C317.409 112.297 317.063 112.235 316.753 112.09L310.903 109.337C310.593 109.193 310.331 108.971 310.144 108.696C309.957 108.421 309.853 108.102 309.842 107.775V106.452C309.82 105.998 309.621 105.569 309.284 105.247C308.685 104.677 308.126 104.072 307.609 103.434C307.468 103.251 307.291 103.096 307.088 102.977C306.884 102.859 306.658 102.781 306.422 102.745L305.026 102.534C304.687 102.475 304.371 102.333 304.108 102.122C303.846 101.91 303.647 101.637 303.532 101.329L301.438 95.4523C301.331 95.1444 301.313 94.8145 301.386 94.4976C301.46 94.1807 301.623 93.8886 301.857 93.6522L302.834 92.686C303.158 92.344 303.337 91.901 303.337 91.4418C303.337 90.6362 303.393 89.8314 303.504 89.0328C303.581 88.567 303.461 88.0912 303.169 87.7092L302.36 86.6239C302.156 86.3614 302.033 86.0508 302.004 85.7263C301.974 85.4017 302.039 85.0758 302.192 84.7841L305.096 79.2249C305.245 78.9328 305.477 78.6854 305.765 78.5102C306.053 78.335 306.387 78.2388 306.729 78.2322H308.125C308.608 78.2148 309.067 78.0258 309.41 77.7028C310.011 77.135 310.649 76.6045 311.322 76.1144C311.702 75.8374 311.961 75.4366 312.048 74.9894L312.271 73.6658C312.324 73.3434 312.47 73.0411 312.691 72.7914C312.913 72.5418 313.202 72.3544 313.528 72.2495ZM317.227 93.6655C317.672 94.9036 318.493 95.9892 319.588 96.7851C320.682 97.581 322.001 98.0516 323.377 98.1373C324.754 98.2231 326.126 97.9202 327.321 97.267C328.516 96.6137 329.481 95.6394 330.092 94.467C330.703 93.2946 330.935 91.9767 330.757 90.6798C330.579 89.3828 330 88.1649 329.092 87.1799C328.185 86.1948 326.99 85.4868 325.658 85.1452C324.327 84.8036 322.918 84.8438 321.611 85.2606C320.74 85.5382 319.935 85.9761 319.243 86.5492C318.551 87.1222 317.986 87.8192 317.578 88.6C317.171 89.3809 316.93 90.2303 316.87 91.0996C316.81 91.9688 316.931 92.8408 317.227 93.6655Z" fill="#309BA2"/>
<path opacity="0.5" d="M313.528 72.2495L319.712 70.2641C320.039 70.1622 320.389 70.1453 320.726 70.2151C321.062 70.285 321.372 70.439 321.625 70.6612L322.644 71.5877C323.001 71.8912 323.462 72.0606 323.942 72.0642C324.792 72.0635 325.64 72.1166 326.483 72.223C326.726 72.2606 326.975 72.2519 327.214 72.1973C327.454 72.1428 327.68 72.0435 327.879 71.9054L329.023 71.1244C329.306 70.9366 329.636 70.8239 329.98 70.7983C330.323 70.7727 330.668 70.8351 330.978 70.9788L336.827 73.732C337.135 73.8752 337.396 74.0948 337.583 74.3674C337.77 74.6401 337.875 74.9557 337.888 75.2806V76.6042C337.906 77.0621 338.106 77.4968 338.446 77.8219C339.049 78.3887 339.608 78.9946 340.122 79.6352C340.414 79.9958 340.837 80.241 341.308 80.3235L342.704 80.5353C343.043 80.589 343.36 80.7296 343.621 80.9419C343.882 81.1543 344.077 81.4301 344.184 81.7398L346.278 87.6034C346.392 87.9118 346.414 88.244 346.343 88.5637C346.272 88.8834 346.109 89.1784 345.873 89.4167L344.896 90.3829C344.574 90.7202 344.395 91.1588 344.393 91.6139C344.394 92.4195 344.338 93.2242 344.226 94.0228C344.185 94.2527 344.192 94.4878 344.248 94.7149C344.303 94.9421 344.404 95.1566 344.547 95.3465L345.371 96.4318C345.574 96.6943 345.697 97.0049 345.727 97.3294C345.756 97.654 345.691 97.9799 345.538 98.2716L342.634 103.831C342.483 104.123 342.252 104.37 341.964 104.547C341.677 104.725 341.344 104.825 341.001 104.837H339.605C339.125 104.851 338.67 105.041 338.335 105.366C337.727 105.927 337.088 106.457 336.422 106.954C336.042 107.232 335.783 107.632 335.696 108.08L335.473 109.403C335.416 109.725 335.268 110.025 335.044 110.273C334.82 110.52 334.529 110.704 334.203 110.806L328.018 112.792C327.692 112.898 327.341 112.917 327.003 112.847C326.666 112.777 326.356 112.62 326.106 112.395L325.073 111.481C324.722 111.168 324.256 110.996 323.774 111.005C322.929 111.005 322.085 110.952 321.248 110.846C321.005 110.806 320.757 110.813 320.518 110.865C320.278 110.918 320.052 111.014 319.852 111.15L318.707 111.931C318.427 112.124 318.097 112.241 317.753 112.269C317.409 112.297 317.063 112.235 316.753 112.09L310.903 109.337C310.593 109.193 310.331 108.971 310.144 108.696C309.957 108.421 309.853 108.102 309.842 107.775V106.452C309.82 105.998 309.621 105.569 309.284 105.247C308.685 104.677 308.126 104.072 307.609 103.434C307.468 103.251 307.291 103.096 307.088 102.977C306.884 102.859 306.658 102.781 306.422 102.745L305.026 102.534C304.687 102.475 304.371 102.333 304.108 102.122C303.846 101.91 303.647 101.637 303.532 101.329L301.438 95.4523C301.331 95.1444 301.313 94.8145 301.386 94.4976C301.46 94.1807 301.623 93.8886 301.857 93.6522L302.834 92.686C303.158 92.344 303.337 91.901 303.337 91.4418C303.337 90.6362 303.393 89.8314 303.504 89.0328C303.581 88.567 303.461 88.0912 303.169 87.7092L302.36 86.6239C302.156 86.3614 302.033 86.0508 302.004 85.7263C301.974 85.4017 302.039 85.0758 302.192 84.7841L305.096 79.2249C305.245 78.9328 305.477 78.6854 305.765 78.5102C306.053 78.335 306.387 78.2388 306.729 78.2322H308.125C308.608 78.2148 309.067 78.0258 309.41 77.7028C310.011 77.135 310.649 76.6045 311.322 76.1144C311.702 75.8374 311.961 75.4366 312.048 74.9894L312.271 73.6658C312.324 73.3434 312.47 73.0411 312.691 72.7914C312.913 72.5418 313.202 72.3544 313.528 72.2495ZM317.227 93.6655C317.672 94.9036 318.493 95.9892 319.588 96.7851C320.682 97.581 322.001 98.0516 323.377 98.1373C324.754 98.2231 326.126 97.9202 327.321 97.267C328.516 96.6137 329.481 95.6394 330.092 94.467C330.703 93.2946 330.935 91.9767 330.757 90.6798C330.579 89.3828 330 88.1649 329.092 87.1799C328.185 86.1948 326.99 85.4868 325.658 85.1452C324.327 84.8036 322.918 84.8438 321.611 85.2606C320.74 85.5382 319.935 85.9761 319.243 86.5492C318.551 87.1222 317.986 87.8192 317.578 88.6C317.171 89.3809 316.93 90.2303 316.87 91.0996C316.81 91.9688 316.931 92.8408 317.227 93.6655Z" fill="black"/>
<path d="M277.86 135.809L285.538 123.195C285.822 122.726 285.973 122.195 285.974 121.653C285.975 121.112 285.828 120.58 285.546 120.11C285.264 119.639 284.857 119.246 284.366 118.971C283.875 118.695 283.317 118.545 282.746 118.536H267.39C266.818 118.541 266.257 118.688 265.763 118.963C265.27 119.238 264.862 119.631 264.579 120.103C264.296 120.575 264.149 121.109 264.152 121.652C264.156 122.194 264.31 122.727 264.598 123.195L272.276 135.809C272.57 136.261 272.981 136.634 273.47 136.892C273.958 137.151 274.509 137.286 275.068 137.286C275.628 137.286 276.178 137.151 276.667 136.892C277.156 136.634 277.566 136.261 277.86 135.809Z" fill="#309BA2"/>
<path d="M26.2869 279.658H214.482C215.128 279.66 215.768 279.539 216.364 279.301C216.959 279.063 217.498 278.713 217.947 278.273C218.397 277.834 218.749 277.312 218.981 276.74C219.213 276.169 219.321 275.558 219.298 274.946L214.845 147.377C214.785 146.115 214.217 144.922 213.26 144.044C212.302 143.165 211.026 142.667 209.694 142.651H21.5126C20.8646 142.647 20.2226 142.768 19.6252 143.006C19.0279 143.244 18.4877 143.595 18.0375 144.036C17.5872 144.478 17.2362 145.002 17.0056 145.576C16.7751 146.15 16.6699 146.763 16.6964 147.377L21.1357 274.946C21.1896 276.209 21.7551 277.404 22.7146 278.281C23.6741 279.159 24.9537 279.652 26.2869 279.658Z" fill="#227B81"/>
<path d="M27.8225 279.658H216.018C216.664 279.66 217.304 279.539 217.899 279.301C218.495 279.063 219.033 278.713 219.483 278.273C219.933 277.833 220.284 277.312 220.516 276.74C220.748 276.168 220.856 275.558 220.834 274.946L216.381 147.377C216.32 146.115 215.753 144.922 214.795 144.044C213.838 143.165 212.562 142.667 211.229 142.651H23.0482C22.4008 142.649 21.7596 142.771 21.1632 143.01C20.5668 143.248 20.0274 143.599 19.5775 144.04C19.1276 144.482 18.7765 145.005 18.5453 145.578C18.3141 146.152 18.2075 146.763 18.2319 147.377L22.6852 274.946C22.739 276.207 23.3026 277.399 24.2591 278.277C25.2156 279.154 26.4917 279.649 27.8225 279.658Z" fill="#227B81"/>
<g opacity="0.6">
<path d="M27.8225 279.658H216.018C216.664 279.66 217.304 279.539 217.899 279.301C218.495 279.063 219.033 278.713 219.483 278.273C219.933 277.833 220.284 277.312 220.516 276.74C220.748 276.168 220.856 275.558 220.834 274.946L216.381 147.377C216.32 146.115 215.753 144.922 214.795 144.044C213.838 143.165 212.562 142.667 211.229 142.651H23.0482C22.4008 142.649 21.7596 142.771 21.1632 143.01C20.5668 143.248 20.0274 143.599 19.5775 144.04C19.1276 144.482 18.7765 145.005 18.5453 145.578C18.3141 146.152 18.2075 146.763 18.2319 147.377L22.6852 274.946C22.739 276.207 23.3026 277.399 24.2591 278.277C25.2156 279.154 26.4917 279.649 27.8225 279.658Z" fill="#263238"/>
</g>
<path d="M30.2513 279.434H257.534C258.652 279.433 259.748 279.731 260.696 280.293C261.643 280.854 262.406 281.657 262.895 282.61C263.021 282.859 263.077 283.135 263.06 283.41C263.042 283.686 262.951 283.953 262.794 284.186C262.638 284.419 262.422 284.61 262.166 284.742C261.91 284.874 261.623 284.942 261.332 284.94H26.4542C26.1617 284.944 25.873 284.878 25.6152 284.747C25.3574 284.616 25.1392 284.425 24.9812 284.192C24.8232 283.958 24.7306 283.691 24.7123 283.414C24.6941 283.137 24.7506 282.86 24.8767 282.61C25.3686 281.656 26.1332 280.853 27.0835 280.291C28.0338 279.73 29.1315 279.432 30.2513 279.434Z" fill="#227B81"/>
<path opacity="0.6" d="M257.535 279.434H76.1663C75.0465 279.432 73.9489 279.73 72.9986 280.291C72.0483 280.853 71.2836 281.656 70.7917 282.61C70.6657 282.86 70.6091 283.137 70.6274 283.414C70.6457 283.691 70.7382 283.958 70.8962 284.192C71.0542 284.425 71.2724 284.616 71.5302 284.747C71.788 284.878 72.0768 284.944 72.3692 284.94H261.332C261.623 284.942 261.91 284.874 262.166 284.742C262.422 284.61 262.638 284.419 262.795 284.186C262.951 283.953 263.042 283.686 263.06 283.41C263.078 283.135 263.021 282.859 262.896 282.61C262.406 281.657 261.644 280.854 260.696 280.293C259.748 279.731 258.653 279.433 257.535 279.434Z" fill="#263238"/>
<path opacity="0.3" d="M149.121 282.928H196.306C196.866 282.931 197.402 283.145 197.797 283.522C198.192 283.899 198.414 284.408 198.414 284.94H146.999C146.999 284.406 147.223 283.894 147.621 283.517C148.018 283.14 148.558 282.928 149.121 282.928Z" fill="white"/>
<path opacity="0.9" d="M216.339 270.327L212.151 151.996C212.126 151.504 211.904 151.04 211.53 150.698C211.157 150.356 210.659 150.163 210.14 150.156H24.5976C24.3416 150.154 24.0879 150.202 23.8524 150.297C23.6169 150.392 23.4046 150.532 23.229 150.708C23.0533 150.885 22.918 151.094 22.8316 151.322C22.7452 151.551 22.7096 151.794 22.7269 152.036L26.9149 270.366C26.9329 270.858 27.1507 271.324 27.5228 271.667C27.8949 272.01 28.3924 272.203 28.9112 272.206H214.58C214.825 272.193 215.066 272.133 215.288 272.031C215.509 271.93 215.707 271.787 215.871 271.613C216.034 271.438 216.16 271.235 216.24 271.014C216.32 270.793 216.354 270.56 216.339 270.327Z" fill="white"/>
<path d="M63.3788 272.166H37.79L67.2876 150.156H92.8763L63.3788 272.166Z" fill="white"/>
<path d="M79.6843 272.166H70.4707L99.9683 150.156H109.182L79.6843 272.166Z" fill="white"/>
<path d="M173.816 272.166H164.603L194.1 150.156H203.3L173.816 272.166Z" fill="white"/>
<path opacity="0.4" d="M115.812 146.61C115.847 146.968 116.02 147.301 116.298 147.546C116.577 147.79 116.941 147.928 117.32 147.933C117.69 147.933 118.045 147.794 118.307 147.546C118.569 147.297 118.716 146.961 118.716 146.61C118.688 146.249 118.517 145.912 118.237 145.667C117.957 145.421 117.59 145.285 117.209 145.286C116.838 145.286 116.483 145.426 116.221 145.674C115.96 145.922 115.812 146.259 115.812 146.61Z" fill="white"/>
<path d="M175.729 133.585C178.2 137.344 180.866 141.328 183.533 145.167C186.199 149.005 188.935 152.843 191.727 156.602C197.145 164.071 203.003 171.243 209.275 178.085C212.221 181.278 215.418 184.256 218.838 186.993L220.038 187.893C220.3 188.106 220.575 188.305 220.862 188.488C221.585 188.939 222.336 189.35 223.109 189.719C224.994 190.589 226.944 191.323 228.945 191.916C231.053 192.591 233.272 193.24 235.534 193.73C237.795 194.219 240.127 194.789 242.514 195.252C247.19 196.192 252.076 197.052 256.781 197.82V207.085C254.101 207.455 251.588 207.641 248.977 207.813C246.367 207.985 243.784 208.051 241.16 208.064C235.801 208.082 230.45 207.679 225.161 206.86C222.298 206.388 219.475 205.715 216.716 204.848C215.172 204.345 213.669 203.735 212.221 203.021C211.453 202.677 210.643 202.188 209.861 201.698L208.06 200.507C203.617 197.411 199.461 193.961 195.636 190.196C188.433 183.068 181.767 175.469 175.687 167.456C172.662 163.529 169.749 159.559 166.948 155.544C164.156 151.467 161.364 147.47 158.768 143.128L175.729 133.585Z" fill="#FFC3BD"/>
<path d="M152.234 136.153C150.838 147.774 180.056 175.543 180.056 175.543L199.824 159.898C194.031 150.604 187.619 141.67 180.629 133.148C169.391 119.952 153.756 123.01 152.234 136.153Z" fill="#227B81"/>
<path opacity="0.3" d="M168.205 144.399C160.401 136.457 156.674 134.406 152.179 137.569C152.779 149.839 180.099 175.517 180.099 175.517C181.886 162.347 174.808 153.876 168.205 144.399Z" fill="black"/>
<path d="M198.219 154.538L200.299 160.256L178.186 177.463L173.816 173.161L198.219 154.538Z" fill="#227B81"/>
<path opacity="0.3" d="M198.219 154.538L200.299 160.256L178.186 177.463L173.816 173.161L198.219 154.538Z" fill="#263238"/>
<path d="M255.734 197.635L271.09 200.136L262.644 212.922C260.634 213.227 252.621 209.11 249.075 204.001L255.734 197.635Z" fill="#FFC3BD"/>
<path d="M280.513 208.766L274.384 215.357L262.63 212.856L271.062 200.136L280.513 208.766Z" fill="#FFC3BD"/>
<path d="M168.134 125.021C168.134 125.021 184.886 162.373 172.825 231.942H103.025C102.173 221.79 107.087 172.247 95.0117 124.386C102.696 122.972 110.47 122.039 118.283 121.593C128.163 121.05 138.068 121.05 147.948 121.593C154.76 122.241 161.509 123.387 168.134 125.021Z" fill="#227B81"/>
<path opacity="0.3" d="M110.606 136.152C112.002 144.094 110.131 162.863 103.012 184.649C102.466 165.963 100.172 147.36 96.1572 129.058V128.965C100.708 128.608 109.224 128.82 110.606 136.152Z" fill="black"/>
<path d="M120.056 89.9189C122.262 98.9724 124.733 115.557 118.283 121.593C118.283 121.593 121.075 129.084 138.804 129.084C158.348 129.084 147.948 121.593 147.948 121.593C137.213 119.184 137.213 111.692 138.804 104.664L120.056 89.9189Z" fill="#FFC3BD"/>
<path d="M140.005 129.786L144.193 133.982C144.32 134.106 144.404 134.263 144.434 134.434C144.464 134.604 144.439 134.779 144.361 134.935L142.267 139.078C142.2 139.219 142.092 139.34 141.956 139.426C141.821 139.513 141.662 139.562 141.499 139.568L138.33 139.713C138.179 139.719 138.03 139.688 137.895 139.623C137.761 139.558 137.646 139.462 137.562 139.343L134.631 135.372C134.513 135.223 134.449 135.042 134.449 134.856C134.449 134.67 134.513 134.488 134.631 134.34L138.651 129.826C138.731 129.729 138.832 129.65 138.947 129.595C139.062 129.539 139.189 129.508 139.318 129.504C139.448 129.501 139.576 129.524 139.695 129.573C139.814 129.621 139.92 129.694 140.005 129.786Z" fill="white"/>
<path d="M139.321 129.085C137.306 132.159 136.14 135.663 135.929 139.277C135.929 139.277 113.272 131.931 114.305 121.183C116.317 120.258 118.254 119.192 120.098 117.993C120.098 117.993 120.838 124.783 139.321 129.085Z" fill="#263238"/>
<path d="M139.321 129.085C141.337 131.999 142.788 135.231 143.607 138.628C143.607 138.628 154.105 131.812 151.118 121.183L144.947 119.926C144.947 119.926 146.245 126.782 139.321 129.085Z" fill="#263238"/>
<path d="M141.89 139.118C143.286 143.512 153.812 176.099 154.077 183.895C154.084 183.961 154.084 184.028 154.077 184.094C153.1 188.29 148.717 195.649 146.93 198.534C146.861 198.648 146.76 198.742 146.638 198.804C146.517 198.866 146.379 198.895 146.241 198.887C146.102 198.878 145.969 198.834 145.857 198.757C145.744 198.681 145.657 198.576 145.604 198.455C144.375 195.609 141.416 188.793 139.461 184.809C139.425 184.733 139.402 184.653 139.391 184.57C138.47 170.342 138.219 148.211 137.758 139.369C137.752 139.274 137.767 139.178 137.802 139.088C137.836 138.999 137.89 138.917 137.959 138.847C138.029 138.778 138.112 138.723 138.205 138.685C138.297 138.647 138.397 138.628 138.498 138.628H141.192C141.348 138.629 141.5 138.678 141.625 138.766C141.75 138.853 141.843 138.977 141.89 139.118Z" fill="#F7A9A0"/>
<path opacity="0.2" d="M127.707 95.9287L138.805 104.651C138.403 106.291 138.156 107.96 138.065 109.641C133.975 109.085 128.293 104.863 127.665 100.826C127.357 99.2053 127.372 97.5445 127.707 95.9287Z" fill="black"/>
<path d="M147.39 63.0102C150.029 64.8765 154.538 72.7652 148.786 74.83C143.035 76.8948 140.927 58.4305 147.39 63.0102Z" fill="#263238"/>
<path d="M116.623 79.0652C119.261 91.1233 120.168 98.284 127.609 103.83C130.007 105.661 132.887 106.835 135.938 107.225C138.989 107.615 142.094 107.207 144.918 106.044C147.742 104.881 150.176 103.008 151.958 100.628C153.74 98.2476 154.801 95.4506 155.027 92.5396C156.116 81.3551 151.592 63.5261 138.275 60.0053C135.413 59.174 132.372 59.0703 129.455 59.7047C126.539 60.339 123.849 61.6891 121.656 63.6196C119.463 65.5501 117.843 67.9932 116.96 70.704C116.077 73.4149 115.96 76.2983 116.623 79.0652Z" fill="#FFC3BD"/>
<path d="M118.284 88.1456L123.616 84.7704L123.965 81.832C124.455 77.5715 123.616 73.2684 121.55 69.4563C121.55 69.4563 147.474 70.3696 150.685 62.6794C153.896 54.9892 144.766 49.2051 144.766 49.2051C144.766 49.2051 135.594 54.1951 129.41 54.5922C123.226 54.9892 104.282 47.6565 104.282 62.8382C95.9058 65.2869 96.185 78.3509 118.242 88.1456" fill="#263238"/>
<path d="M105.217 63.4336C105.217 63.4336 101.783 60.8526 104.338 52.9639C101.197 54.4463 99.6892 62.5071 105.217 63.4336Z" fill="#263238"/>
<path d="M112.867 93.0562C114.979 95.4498 117.975 96.9885 121.243 97.3579C125.571 97.7947 126.827 94.0092 124.957 90.5281C123.226 87.4044 118.898 83.4071 114.906 84.5851C110.913 85.7631 110.285 90.0781 112.867 93.0562Z" fill="#FFC3BD"/>
<path d="M178.716 272.167H134.114C130.108 249.215 126.883 231.942 126.883 231.942H172.825C172.825 231.942 175.408 248.924 178.716 272.167Z" fill="#263238"/>
<path d="M104.729 272.167C103.724 249.215 102.97 231.942 102.97 231.942H148.005C148.005 231.942 148.228 249.427 148.326 272.167H104.729Z" fill="#263238"/>
<path d="M136.627 80.4291C136.78 81.4218 137.45 82.1631 138.134 82.0969C138.818 82.0307 139.251 81.1571 139.098 80.1777C138.944 79.1982 138.274 78.4437 137.59 78.5099C136.906 78.5761 136.473 79.4364 136.627 80.4291Z" fill="#263238"/>
<path d="M148.451 79.2377C148.604 80.2304 149.275 80.9717 149.959 80.8922C150.643 80.8128 151.075 79.9657 150.922 78.9862C150.768 78.0068 150.098 77.2523 149.414 77.3185C148.73 77.3847 148.297 78.2053 148.451 79.2377Z" fill="#263238"/>
<path d="M144.766 80.085C146.479 82.9845 148.592 85.6552 151.048 88.0266C149.456 89.8532 146.19 89.4296 146.19 89.4296L144.766 80.085Z" fill="#ED847E"/>
<path d="M141.388 92.4739C142.107 92.5464 142.832 92.5464 143.552 92.4739C143.592 92.4706 143.631 92.4597 143.667 92.4419C143.703 92.4241 143.735 92.3997 143.761 92.3702C143.787 92.3407 143.806 92.3065 143.818 92.2698C143.83 92.2331 143.835 92.1945 143.831 92.1562C143.82 92.0777 143.778 92.0062 143.713 91.9568C143.648 91.9074 143.565 91.884 143.482 91.8915C142.167 92.0501 140.831 91.9202 139.577 91.5117C138.323 91.1032 137.185 90.427 136.25 89.5355C136.224 89.5059 136.191 89.4816 136.155 89.464C136.118 89.4463 136.079 89.4356 136.038 89.4326C135.997 89.4295 135.956 89.4341 135.917 89.4461C135.878 89.458 135.842 89.4772 135.811 89.5024C135.78 89.5276 135.754 89.5584 135.735 89.5929C135.717 89.6275 135.705 89.6653 135.702 89.704C135.699 89.7427 135.704 89.7817 135.716 89.8186C135.729 89.8556 135.749 89.8898 135.776 89.9193C137.266 91.3773 139.256 92.2832 141.388 92.4739Z" fill="#263238"/>
<path d="M132.355 77.1998C132.475 77.2138 132.596 77.1936 132.703 77.1416C132.81 77.0897 132.898 77.0085 132.956 76.9086C133.314 76.2687 133.832 75.7218 134.465 75.3157C135.097 74.9096 135.825 74.6567 136.585 74.579C136.749 74.5688 136.903 74.4979 137.012 74.3816C137.122 74.2652 137.179 74.1128 137.171 73.9569C137.168 73.8804 137.148 73.8053 137.114 73.736C137.08 73.6666 137.032 73.6043 136.972 73.5527C136.912 73.5011 136.843 73.4611 136.767 73.4351C136.691 73.409 136.61 73.3975 136.529 73.401C135.562 73.4921 134.632 73.8062 133.822 74.3161C133.011 74.826 132.345 75.5161 131.881 76.3262C131.839 76.3936 131.812 76.4684 131.801 76.5459C131.79 76.6235 131.796 76.7023 131.818 76.7777C131.841 76.853 131.879 76.9234 131.93 76.9845C131.981 77.0457 132.045 77.0964 132.118 77.1336C132.189 77.1752 132.271 77.198 132.355 77.1998Z" fill="#263238"/>
<path d="M152.876 74.8301C153.025 74.8408 153.172 74.8035 153.295 74.7242C153.427 74.6359 153.518 74.5027 153.55 74.3524C153.581 74.202 153.55 74.046 153.463 73.9168C152.932 73.1213 152.213 72.4545 151.362 71.9695C150.511 71.4846 149.553 71.1951 148.563 71.124C148.401 71.1239 148.245 71.183 148.128 71.289C148.011 71.3951 147.942 71.5398 147.935 71.6932C147.935 71.8489 147.999 71.9984 148.114 72.1097C148.228 72.2211 148.385 72.2853 148.549 72.2888C149.337 72.3591 150.097 72.6012 150.771 72.9961C151.444 73.391 152.012 73.9281 152.43 74.5654C152.481 74.6364 152.547 74.6966 152.624 74.7421C152.701 74.7877 152.787 74.8177 152.876 74.8301Z" fill="#263238"/>
<path d="M108.344 142.983L105.244 148.065C104.202 149.83 103.183 151.595 102.187 153.36C100.177 156.889 98.2505 160.445 96.4078 164.028C94.593 167.615 92.8619 171.215 91.3124 174.842C90.5725 176.642 89.8187 178.455 89.1765 180.269L88.1853 182.982L87.3617 185.629L87.1523 186.304L87.0406 186.648C87.0406 186.767 87.0406 186.648 87.0406 186.728C87.0406 186.807 87.0406 186.873 86.9429 187.019C86.8858 187.538 86.8858 188.062 86.9429 188.581C87.1179 190.155 87.4641 191.707 87.9759 193.213C89.2013 196.838 90.6941 200.376 92.4432 203.802C95.975 210.989 100.275 218.243 104.505 225.324L96.7847 231.042C93.4902 227.905 90.5306 224.715 87.6269 221.353C84.7232 217.991 82.0429 214.497 79.4045 210.764C76.717 206.952 74.3816 202.926 72.4245 198.733C71.3089 196.341 70.4484 193.849 69.8558 191.294C69.5088 189.749 69.331 188.175 69.3253 186.595C69.314 185.647 69.3887 184.699 69.5487 183.763L69.6604 183.075L69.7581 182.651L69.9396 181.791C70.8441 177.305 72.0708 172.882 73.6111 168.555C75.0908 164.293 76.8219 160.189 78.6646 156.139C80.5073 152.089 82.5315 148.198 84.6953 144.306C85.7842 142.387 86.8871 140.481 88.0457 138.575C89.2044 136.669 90.3491 134.869 91.7312 132.844L108.344 142.983Z" fill="#FFC3BD"/>
<path d="M95.0257 124.386C82.7408 126.094 70.0791 166.649 70.0791 166.649L96.5194 180.534C96.5194 180.534 107.227 161.235 112.336 146.914C117.683 131.904 108.19 122.56 95.0257 124.386Z" fill="#227B81"/>
<path d="M70.6236 160.931L69.5068 166.887L96.6731 181.063L100.289 176.152L70.6236 160.931Z" fill="#227B81"/>
<path opacity="0.3" d="M70.6236 160.931L69.5068 166.887L96.6731 181.063L100.289 176.152L70.6236 160.931Z" fill="#263238"/>
<path d="M100.987 222.571L113.969 220.427L107.31 234.682C107.31 234.682 95.4444 234.616 95.9889 228.818L100.987 222.571Z" fill="#FFC3BD"/>
<path d="M123.672 227.587L117.557 239.103L107.311 234.682L113.969 220.427L123.672 227.587Z" fill="#FFC3BD"/>
<path d="M529.714 279.658H341.518C340.872 279.66 340.232 279.539 339.637 279.301C339.041 279.063 338.503 278.713 338.053 278.273C337.603 277.834 337.252 277.312 337.02 276.74C336.788 276.168 336.68 275.558 336.702 274.946L341.155 147.377C341.216 146.115 341.783 144.922 342.741 144.044C343.698 143.165 344.974 142.667 346.307 142.651H534.488C535.136 142.647 535.778 142.768 536.375 143.006C536.973 143.244 537.513 143.595 537.963 144.036C538.413 144.478 538.764 145.002 538.995 145.576C539.225 146.15 539.331 146.763 539.304 147.377L534.865 274.946C534.811 276.209 534.245 277.404 533.286 278.281C532.326 279.159 531.047 279.652 529.714 279.658Z" fill="#227B81"/>
<path opacity="0.6" d="M529.714 279.658H341.518C340.872 279.66 340.232 279.539 339.637 279.301C339.041 279.063 338.503 278.713 338.053 278.273C337.603 277.834 337.252 277.312 337.02 276.74C336.788 276.168 336.68 275.558 336.702 274.946L341.155 147.377C341.216 146.115 341.783 144.922 342.741 144.044C343.698 143.165 344.974 142.667 346.307 142.651H534.488C535.136 142.647 535.778 142.768 536.375 143.006C536.973 143.244 537.513 143.595 537.963 144.036C538.413 144.478 538.764 145.002 538.995 145.576C539.225 146.15 539.331 146.763 539.304 147.377L534.865 274.946C534.811 276.209 534.245 277.404 533.286 278.281C532.326 279.159 531.047 279.652 529.714 279.658Z" fill="#263238"/>
<path d="M528.178 279.658H339.983C339.337 279.66 338.697 279.539 338.102 279.301C337.506 279.063 336.967 278.713 336.518 278.273C336.068 277.833 335.717 277.312 335.485 276.74C335.252 276.168 335.144 275.558 335.167 274.946L339.62 147.377C339.681 146.115 340.248 144.922 341.206 144.044C342.163 143.165 343.439 142.667 344.771 142.651H532.953C533.6 142.649 534.241 142.771 534.838 143.01C535.434 143.248 535.973 143.599 536.423 144.04C536.873 144.482 537.224 145.005 537.456 145.578C537.687 146.152 537.793 146.763 537.769 147.377L533.316 274.946C533.262 276.207 532.698 277.399 531.742 278.277C530.785 279.154 529.509 279.649 528.178 279.658Z" fill="#227B81"/>
<path d="M525.749 279.433H298.466C297.348 279.432 296.253 279.73 295.305 280.292C294.357 280.853 293.595 281.656 293.105 282.609C292.98 282.858 292.923 283.134 292.941 283.409C292.958 283.685 293.05 283.952 293.206 284.185C293.362 284.418 293.579 284.609 293.834 284.741C294.09 284.873 294.377 284.941 294.669 284.939H529.546C529.838 284.943 530.127 284.877 530.385 284.746C530.643 284.615 530.861 284.424 531.019 284.191C531.177 283.957 531.27 283.69 531.288 283.413C531.306 283.136 531.25 282.859 531.124 282.609C530.632 281.655 529.867 280.852 528.917 280.29C527.966 279.729 526.869 279.431 525.749 279.433Z" fill="#227B81"/>
<path opacity="0.6" d="M525.749 279.433H490.849C489.729 279.431 488.631 279.729 487.681 280.29C486.731 280.852 485.966 281.655 485.474 282.609C485.348 282.859 485.292 283.136 485.31 283.413C485.328 283.69 485.421 283.957 485.579 284.191C485.737 284.424 485.955 284.615 486.213 284.746C486.471 284.877 486.759 284.943 487.052 284.939H529.476C529.769 284.943 530.058 284.877 530.315 284.746C530.573 284.615 530.791 284.424 530.949 284.191C531.107 283.957 531.2 283.69 531.218 283.413C531.236 283.136 531.18 282.859 531.054 282.609C530.567 281.665 529.813 280.869 528.877 280.308C527.94 279.747 526.857 279.444 525.749 279.433Z" fill="#263238"/>
<path opacity="0.2" d="M406.88 282.928H359.695C359.135 282.931 358.598 283.145 358.203 283.522C357.809 283.899 357.587 284.408 357.587 284.94H409.002C409.002 284.406 408.778 283.894 408.38 283.517C407.982 283.14 407.443 282.928 406.88 282.928Z" fill="black"/>
<path opacity="0.9" d="M339.661 270.327L343.849 151.996C343.874 151.504 344.096 151.04 344.47 150.698C344.843 150.356 345.34 150.162 345.86 150.156H531.528C531.78 150.154 532.03 150.201 532.263 150.294C532.495 150.386 532.706 150.523 532.881 150.695C533.056 150.867 533.192 151.071 533.281 151.295C533.37 151.519 533.41 151.757 533.399 151.996L529.211 270.327C529.193 270.818 528.975 271.284 528.603 271.627C528.231 271.97 527.733 272.163 527.214 272.166H341.546C341.293 272.168 341.043 272.122 340.809 272.029C340.576 271.937 340.365 271.8 340.189 271.629C340.013 271.457 339.875 271.253 339.785 271.029C339.694 270.805 339.652 270.566 339.661 270.327Z" fill="white"/>
<path d="M471.654 272.166H446.065L475.563 150.156H501.152L471.654 272.166Z" fill="white"/>
<path d="M360.546 272.166H351.332L380.83 150.156H390.029L360.546 272.166Z" fill="white"/>
<path d="M492.636 272.166H483.422L512.919 150.156H522.133L492.636 272.166Z" fill="white"/>
<path opacity="0.4" d="M440.188 146.609C440.153 146.967 439.98 147.3 439.702 147.545C439.423 147.789 439.06 147.927 438.68 147.932C438.31 147.932 437.955 147.793 437.693 147.545C437.431 147.296 437.284 146.96 437.284 146.609C437.312 146.248 437.484 145.911 437.763 145.666C438.043 145.42 438.411 145.284 438.792 145.285C439.162 145.285 439.517 145.425 439.779 145.673C440.041 145.921 440.188 146.258 440.188 146.609Z" fill="black"/>
<path d="M426.619 89.9189C424.427 98.9724 421.943 115.557 428.406 121.593C428.406 121.593 425.614 129.084 407.885 129.084C388.341 129.084 398.741 121.593 398.741 121.593C409.476 119.184 409.476 111.692 407.871 104.664L426.619 89.9189Z" fill="#B55B52"/>
<path d="M455.028 132.923C456.424 134.948 457.569 136.722 458.713 138.654C459.858 140.587 460.989 142.466 462.078 144.385C464.227 148.25 466.266 152.181 468.108 156.218C469.951 160.255 471.682 164.372 473.148 168.634C474.693 172.961 475.924 177.383 476.833 181.87L477.015 182.73L477.099 183.154L477.224 183.842C477.37 184.78 477.445 185.726 477.448 186.675C477.428 188.253 477.25 189.826 476.917 191.373C476.32 193.928 475.455 196.42 474.335 198.812C472.383 203.008 470.047 207.034 467.354 210.844C464.758 214.536 462.022 218.031 459.118 221.432C456.239 224.805 453.182 228.039 449.96 231.121L442.254 225.403C446.442 218.322 450.784 211.069 454.316 203.881C456.061 200.455 457.549 196.917 458.769 193.293C459.281 191.786 459.627 190.234 459.802 188.66C459.865 188.141 459.865 187.617 459.802 187.098C459.802 186.952 459.802 186.82 459.69 186.807V186.727L459.593 186.383L459.383 185.708L458.546 183.061L457.569 180.348C456.912 178.534 456.172 176.721 455.419 174.921C453.869 171.294 452.138 167.694 450.337 164.107C448.536 160.52 446.554 156.973 444.558 153.439C443.571 151.674 442.552 149.909 441.5 148.144L438.401 143.075L455.028 132.923Z" fill="#B65B52"/>
<path d="M451.663 124.385C463.948 126.093 476.595 166.648 476.595 166.648L450.169 180.533C450.169 180.533 439.448 161.301 434.352 146.913C428.992 131.903 438.54 122.559 451.663 124.385Z" fill="#309BA2"/>
<path opacity="0.3" d="M443.664 146.609L441.668 163.949C443.664 168.118 445.619 171.89 447.14 174.868C447.713 167.919 447.699 156.616 443.664 146.609Z" fill="black"/>
<path d="M476.051 160.931L477.182 166.887L450.016 181.063L446.4 176.152L476.051 160.931Z" fill="#227B81"/>
<path opacity="0.3" d="M476.051 160.931L477.182 166.887L450.016 181.063L446.4 176.152L476.051 160.931Z" fill="#263238"/>
<path d="M445.702 222.571L432.705 220.427L439.378 234.682C439.378 234.682 451.23 234.616 450.686 228.818L445.702 222.571Z" fill="#B55B52"/>
<path d="M423.018 227.587L429.118 239.103L439.379 234.682L432.706 220.427L423.018 227.587Z" fill="#B55B52"/>
<path d="M378.513 125.021C378.513 125.021 361.76 162.373 373.836 231.942H443.636C444.488 221.79 439.56 172.247 451.649 124.386C443.974 122.974 436.209 122.042 428.406 121.593C418.526 121.05 408.621 121.05 398.741 121.593C391.915 122.238 385.152 123.385 378.513 125.021Z" fill="#227B81"/>
<path opacity="0.3" d="M371.044 156.973C370.029 165.344 369.512 173.762 369.494 182.188C378.987 176.324 382.365 162.877 383.705 153.135L371.044 156.973Z" fill="black"/>
<path d="M387.978 143.141C385.311 147.482 382.617 151.48 379.797 155.556C376.977 159.633 374.087 163.591 371.058 167.469C364.973 175.482 358.302 183.081 351.095 190.208C347.272 193.971 343.121 197.42 338.685 200.519L336.87 201.71C336.088 202.16 335.278 202.65 334.525 203.034C333.07 203.745 331.563 204.356 330.015 204.861C327.256 205.728 324.433 206.4 321.57 206.873C316.281 207.692 310.93 208.095 305.571 208.077C302.961 208.077 300.35 208.077 297.768 207.826C295.185 207.574 292.631 207.468 289.95 207.098V197.832C294.655 197.065 299.541 196.204 304.203 195.264C306.549 194.801 308.88 194.298 311.183 193.742C313.487 193.186 315.679 192.604 317.773 191.929C319.774 191.338 321.724 190.603 323.608 189.732C324.381 189.363 325.132 188.952 325.855 188.501C326.204 188.302 326.414 188.091 326.693 187.905L327.894 187.005C331.307 184.262 334.503 181.284 337.456 178.097C343.719 171.249 349.578 164.078 355.004 156.615C357.796 152.856 360.49 149.018 363.198 145.179C365.907 141.341 368.517 137.357 371.002 133.598L387.978 143.141Z" fill="#B65B52"/>
<path d="M394.441 136.152C395.837 147.774 368.503 175.966 368.503 175.966L346.879 159.924C352.665 150.629 359.071 141.694 366.06 133.174C377.284 119.951 392.891 123.009 394.441 136.152Z" fill="#309BA2"/>
<path d="M348.471 154.537L346.391 160.255L368.489 177.462L372.873 173.16L348.471 154.537Z" fill="#227B81"/>
<path opacity="0.3" d="M348.471 154.537L346.391 160.255L368.489 177.462L372.873 173.16L348.471 154.537Z" fill="#263238"/>
<path d="M289.95 197.872L274.385 198.084L280.653 211.902C282.579 212.498 291.179 209.599 295.506 205.072L289.95 197.872Z" fill="#B55B52"/>
<path d="M263.649 205.245L272.151 215.357L280.653 211.889L274.385 198.084L263.649 205.245Z" fill="#B55B52"/>
<path d="M394.357 79.2377C394.203 80.2304 393.533 80.9717 392.849 80.8922C392.165 80.8128 391.732 79.9657 391.872 78.9862C392.011 78.0068 392.709 77.2523 393.393 77.3185C394.078 77.3847 394.51 78.2053 394.357 79.2377Z" fill="#263238"/>
<path d="M394.65 80.085C392.935 82.987 390.818 85.6579 388.354 88.0266C389.96 89.8532 393.227 89.4296 393.227 89.4296L394.65 80.085Z" fill="#A02724"/>
<path d="M392.878 87.391C390.546 87.391 388.438 84.2011 388.061 80.1243C387.705 77.8581 388.285 75.5491 389.681 73.6784C389.92 73.4047 390.218 73.1828 390.555 73.0276C390.892 72.8723 391.26 72.7873 391.635 72.7783C393.966 72.7783 396.074 75.955 396.451 80.0317C396.822 82.2989 396.252 84.6141 394.86 86.4909C394.618 86.762 394.32 86.9821 393.983 87.1371C393.647 87.2921 393.279 87.3786 392.906 87.391H392.878ZM391.621 73.4401C391.352 73.4544 391.088 73.5219 390.848 73.6381C390.608 73.7543 390.396 73.9168 390.225 74.1152C388.978 75.8599 388.479 77.9899 388.829 80.0714C389.164 83.6849 391.049 86.6894 393.017 86.6894C393.288 86.6727 393.551 86.6029 393.791 86.4844C394.032 86.3659 394.244 86.2013 394.413 86.0012C395.668 84.2643 396.168 82.1357 395.809 80.0582C395.404 76.4844 393.52 73.4401 391.621 73.4401Z" fill="#263238"/>
<path d="M398.056 74.8301C398.2 74.841 398.343 74.8035 398.461 74.7242C398.529 74.6826 398.588 74.6287 398.634 74.5656C398.679 74.5024 398.712 74.4313 398.729 74.3563C398.746 74.2813 398.747 74.2038 398.732 74.1284C398.717 74.053 398.687 73.9811 398.642 73.9168C398.112 73.1213 397.393 72.4545 396.542 71.9695C395.691 71.4846 394.732 71.1951 393.742 71.124C393.581 71.1239 393.425 71.183 393.308 71.289C393.191 71.3951 393.121 71.5398 393.114 71.6932C393.114 71.8489 393.179 71.9984 393.293 72.1097C393.408 72.2211 393.564 72.2853 393.729 72.2888C394.517 72.3591 395.277 72.6012 395.95 72.9961C396.623 73.391 397.191 73.9281 397.609 74.5654C397.661 74.6364 397.727 74.6966 397.804 74.7422C397.88 74.7877 397.966 74.8177 398.056 74.8301Z" fill="#263238"/>
<path d="M430.067 79.065C427.414 91.1231 426.521 98.2838 419.066 103.83C416.668 105.657 413.79 106.828 410.741 107.216C407.692 107.604 404.589 107.195 401.768 106.032C398.947 104.87 396.514 102.999 394.733 100.62C392.952 98.2424 391.89 95.448 391.663 92.5393C390.574 81.3549 395.083 63.5259 408.415 60.0051C411.276 59.1781 414.315 59.0775 417.23 59.7134C420.145 60.3493 422.832 61.6995 425.024 63.629C427.216 65.5584 428.835 67.9995 429.72 70.7083C430.605 73.4171 430.725 76.2987 430.067 79.065Z" fill="#B55B52"/>
<path d="M447.405 272.166C448.06 258.661 446.816 245.135 443.706 231.941H398.671C402.168 245.09 403.899 258.605 403.822 272.166H447.405Z" fill="#227B81"/>
<path opacity="0.3" d="M447.405 272.166C448.06 258.661 446.816 245.135 443.706 231.941H398.671C402.168 245.09 403.899 258.605 403.822 272.166H447.405Z" fill="#030B1D"/>
<path d="M402.482 82.6924C399.997 81.5144 396.898 69.7475 397.749 65.5649C398.601 61.3823 408.61 56.882 418.452 58.5763C428.294 60.2705 432.524 63.5398 434.436 72.0373C436.405 80.8525 429.229 95.5313 425.683 96.6696C423.582 97.3755 421.345 97.6485 419.124 97.4704C416.902 97.2924 414.745 96.6675 412.798 95.6372C409.629 93.7974 407.982 80.2702 402.482 82.6924Z" fill="#263238"/>
<path d="M399.871 69.7868C395.069 70.0516 390.49 62.7982 394.901 56.3258C396.168 54.4809 397.969 53.0215 400.089 52.1224C402.208 51.2233 404.556 50.9226 406.851 51.2564C406.851 51.2564 404.841 54.9757 411.542 54.1948C418.242 53.4138 430.723 55.1875 435.078 59.6348C440.467 65.1145 437.214 75.8887 429.103 73.2415C420.992 70.5942 399.871 69.7868 399.871 69.7868Z" fill="#263238"/>
<path d="M398.587 69.9723C397.582 69.927 396.6 69.6792 395.704 69.2456C394.809 68.8119 394.021 68.2024 393.394 67.4575C392.139 66.0354 391.326 64.3108 391.045 62.4761C390.764 60.6415 391.026 58.7689 391.802 57.0672C391.819 57.0263 391.845 56.9891 391.878 56.9577C391.91 56.9263 391.949 56.9013 391.992 56.8841C392.035 56.8668 392.081 56.8578 392.127 56.8574C392.174 56.8571 392.22 56.8654 392.263 56.8819C392.306 56.8984 392.345 56.9228 392.378 56.9537C392.411 56.9846 392.438 57.0213 392.456 57.0619C392.474 57.1024 392.484 57.146 392.484 57.1901C392.484 57.2341 392.476 57.2778 392.458 57.3187C391.721 58.904 391.468 60.6535 391.727 62.3685C391.986 64.0835 392.747 65.6952 393.924 67.0207C394.57 67.8417 395.442 68.4785 396.444 68.8613C397.446 69.2442 398.54 69.3584 399.606 69.1914C399.694 69.1746 399.786 69.1897 399.864 69.2338C399.941 69.2778 399.999 69.3477 400.025 69.4297C400.046 69.5156 400.032 69.6061 399.985 69.6824C399.939 69.7588 399.863 69.8152 399.773 69.84C399.385 69.9296 398.986 69.974 398.587 69.9723Z" fill="#263238"/>
<path d="M410.369 81.1694C410.573 84.2961 409.51 87.3785 407.396 89.7861C404.604 92.9231 400.877 91.0303 399.746 87.258C398.727 83.8564 398.964 78.1384 402.719 76.378C406.475 74.6176 410.076 77.3442 410.369 81.1694Z" fill="#B55B52"/>
<path d="M367.973 272.166H418.019C420.441 258.887 421.037 245.366 419.792 231.941H373.864C373.864 231.941 371.281 248.923 367.973 272.166Z" fill="#227B81"/>
<path opacity="0.3" d="M367.973 272.166H418.019C420.441 258.887 421.037 245.366 419.792 231.941H373.864C373.864 231.941 371.281 248.923 367.973 272.166Z" fill="black"/>
</svg>
