<svg width="541" height="367" viewBox="0 0 541 367" fill="none" xmlns="http://www.w3.org/2000/svg">
<path d="M541 311.535H0V311.773H541V311.535Z" fill="#E6E6E6"/>
<path d="M135.056 325.933H99.2197V326.171H135.056V325.933Z" fill="#E6E6E6"/>
<path d="M87.8798 325.933H67.1162V326.171H87.8798V325.933Z" fill="#E6E6E6"/>
<path d="M227.815 329.434H207.052V329.671H227.815V329.434Z" fill="#E6E6E6"/>
<path d="M336.08 334.744H289.349V334.982H336.08V334.744Z" fill="#E6E6E6"/>
<path d="M279.719 334.744H272.87V334.982H279.719V334.744Z" fill="#E6E6E6"/>
<path d="M490.525 329.434H389.163V329.671H490.525V329.434Z" fill="#E6E6E6"/>
<path d="M256.434 269.097H47.5102C45.8735 269.094 44.3048 268.521 43.1485 267.502C41.9922 266.483 41.3428 265.103 41.3428 263.664V5.38574C41.357 3.95464 42.0127 2.58628 43.1675 1.57787C44.3223 0.56946 45.8828 0.00245155 47.5102 0H256.434C258.072 0 259.644 0.572438 260.802 1.59138C261.961 2.61033 262.612 3.99231 262.612 5.43332V263.664C262.612 265.105 261.961 266.487 260.802 267.505C259.644 268.524 258.072 269.097 256.434 269.097ZM47.5102 0.19031C45.9452 0.19283 44.4454 0.741315 43.3398 1.71538C42.2342 2.68943 41.6133 4.00948 41.6133 5.38574V263.664C41.6133 265.04 42.2342 266.36 43.3398 267.334C44.4454 268.308 45.9452 268.856 47.5102 268.859H256.434C258 268.856 259.5 268.308 260.608 267.334C261.715 266.361 262.338 265.041 262.341 263.664V5.38574C262.338 4.0086 261.715 2.68858 260.608 1.71479C259.5 0.741006 258 0.192825 256.434 0.19031H47.5102Z" fill="#E6E6E6"/>
<path d="M490.482 269.097H281.547C279.91 269.094 278.34 268.521 277.182 267.503C276.024 266.484 275.372 265.104 275.369 263.664V5.38574C275.386 3.95378 276.044 2.58542 277.201 1.57727C278.357 0.569127 279.919 0.00242481 281.547 0H490.482C492.107 0.00495231 493.665 0.573067 494.817 1.58121C495.97 2.58935 496.624 3.95629 496.638 5.38574V263.664C496.638 265.101 495.99 266.48 494.836 267.499C493.682 268.517 492.116 269.092 490.482 269.097ZM281.547 0.19031C279.981 0.192825 278.48 0.741006 277.373 1.71479C276.266 2.68858 275.643 4.0086 275.64 5.38574V263.664C275.643 265.041 276.266 266.361 277.373 267.334C278.48 268.308 279.981 268.856 281.547 268.859H490.482C492.047 268.856 493.548 268.308 494.656 267.334C495.763 266.361 496.386 265.041 496.389 263.664V5.38574C496.386 4.0086 495.763 2.68858 494.656 1.71479C493.548 0.741006 492.047 0.192825 490.482 0.19031H281.547Z" fill="#E6E6E6"/>
<path d="M289.326 230.255H265.533V313.258H289.326V230.255Z" fill="#E0E0E0"/>
<path d="M284.804 313.258H289.326V301.954H280.064L284.804 313.258Z" fill="#FAFAFA"/>
<path d="M289.327 230.255H181.127V306.321H289.327V230.255Z" fill="#FAFAFA"/>
<path d="M285.399 233.994V254.119H185.022V233.994H285.367M285.789 233.623H184.633V254.481H285.821V233.623H285.789Z" fill="#E0E0E0"/>
<path d="M185.639 313.258H181.127V301.954H190.378L185.639 313.258Z" fill="#FAFAFA"/>
<path d="M232.836 244.052C232.836 244.468 232.976 244.875 233.239 245.22C233.502 245.566 233.875 245.836 234.312 245.995C234.749 246.154 235.23 246.196 235.694 246.115C236.158 246.033 236.584 245.833 236.918 245.539C237.252 245.245 237.48 244.87 237.572 244.462C237.665 244.054 237.617 243.632 237.436 243.247C237.255 242.863 236.949 242.535 236.556 242.304C236.162 242.073 235.7 241.949 235.227 241.949C234.593 241.949 233.985 242.171 233.536 242.565C233.088 242.96 232.836 243.494 232.836 244.052Z" fill="#E6E6E6"/>
<path d="M285.399 258.221V278.346H185.022V258.221H285.367M285.789 257.859H184.633V278.717H285.821V257.869L285.789 257.859Z" fill="#E0E0E0"/>
<path d="M232.836 268.336C232.836 268.752 232.976 269.159 233.239 269.505C233.502 269.85 233.875 270.12 234.312 270.279C234.749 270.438 235.23 270.48 235.694 270.399C236.158 270.318 236.584 270.117 236.918 269.823C237.252 269.529 237.48 269.154 237.572 268.747C237.665 268.339 237.617 267.916 237.436 267.532C237.255 267.147 236.949 266.819 236.556 266.588C236.162 266.357 235.7 266.233 235.227 266.233C234.593 266.233 233.985 266.455 233.536 266.849C233.088 267.244 232.836 267.779 232.836 268.336Z" fill="#E6E6E6"/>
<path d="M285.399 282.456V302.591H185.022V282.456H285.367M285.789 282.085H184.633V302.952H285.821V282.085H285.789Z" fill="#E0E0E0"/>
<path d="M232.836 292.525C232.838 292.94 232.98 293.346 233.244 293.69C233.508 294.035 233.882 294.303 234.32 294.461C234.757 294.618 235.237 294.659 235.7 294.576C236.163 294.494 236.588 294.293 236.922 293.999C237.255 293.704 237.482 293.329 237.573 292.922C237.665 292.514 237.617 292.092 237.435 291.708C237.254 291.324 236.948 290.997 236.555 290.766C236.162 290.535 235.7 290.412 235.227 290.412C234.912 290.412 234.6 290.467 234.31 290.573C234.019 290.679 233.755 290.835 233.532 291.031C233.31 291.228 233.134 291.461 233.015 291.717C232.895 291.973 232.835 292.248 232.836 292.525Z" fill="#E6E6E6"/>
<path d="M166.012 313.258H170.534V301.954H161.283L166.012 313.258Z" fill="#FAFAFA"/>
<path d="M166.531 185.551V213.688H81.6698V185.551H166.531ZM167.029 185.123H81.1504V214.098H167.007V185.133L167.029 185.123Z" fill="#E0E0E0"/>
<path d="M166.531 217.123V291.753H126.107V217.123H166.531ZM167.028 216.686H125.62V292.191H167.028V216.686Z" fill="#E0E0E0"/>
<path d="M82.1888 313.258H77.666V301.954H86.9279L82.1888 313.258Z" fill="#FAFAFA"/>
<path d="M121.703 199.634C121.701 200.052 121.84 200.462 122.103 200.81C122.365 201.159 122.74 201.431 123.178 201.593C123.617 201.754 124.1 201.797 124.567 201.717C125.034 201.636 125.463 201.436 125.8 201.141C126.137 200.846 126.367 200.469 126.46 200.059C126.554 199.649 126.507 199.224 126.325 198.838C126.144 198.451 125.836 198.12 125.441 197.888C125.046 197.655 124.581 197.531 124.105 197.531C123.47 197.531 122.861 197.753 122.411 198.147C121.96 198.541 121.706 199.076 121.703 199.634Z" fill="#E6E6E6"/>
<path d="M130.272 252.664C130.272 253.082 130.414 253.491 130.678 253.839C130.942 254.186 131.318 254.457 131.758 254.617C132.197 254.776 132.681 254.818 133.147 254.735C133.613 254.653 134.041 254.451 134.377 254.155C134.712 253.858 134.94 253.481 135.032 253.07C135.123 252.66 135.074 252.235 134.891 251.849C134.707 251.463 134.398 251.134 134.001 250.903C133.605 250.672 133.139 250.55 132.664 250.552C132.349 250.552 132.037 250.606 131.746 250.713C131.455 250.819 131.191 250.975 130.969 251.171C130.747 251.367 130.571 251.6 130.451 251.857C130.332 252.113 130.271 252.387 130.272 252.664Z" fill="#E6E6E6"/>
<path d="M113.145 252.664C113.147 253.08 113.289 253.485 113.553 253.83C113.817 254.174 114.191 254.443 114.628 254.6C115.065 254.758 115.546 254.798 116.009 254.716C116.472 254.634 116.897 254.433 117.23 254.138C117.564 253.844 117.79 253.469 117.882 253.061C117.973 252.654 117.925 252.231 117.744 251.848C117.563 251.464 117.256 251.136 116.863 250.906C116.47 250.675 116.008 250.552 115.536 250.552C115.221 250.552 114.909 250.606 114.618 250.713C114.327 250.819 114.063 250.975 113.841 251.171C113.619 251.367 113.443 251.6 113.323 251.857C113.204 252.113 113.143 252.387 113.145 252.664Z" fill="#E6E6E6"/>
<path d="M211.715 218.151C211.715 224.812 220.187 230.255 230.542 230.255H239.89C250.245 230.255 258.717 224.812 258.717 218.151H211.715Z" fill="#E0E0E0"/>
<path d="M298.242 366.834C414.105 366.834 508.031 362.011 508.031 356.062C508.031 350.114 414.105 345.291 298.242 345.291C182.379 345.291 88.4531 350.114 88.4531 356.062C88.4531 362.011 182.379 366.834 298.242 366.834Z" fill="#F5F5F5"/>
<path d="M284.166 27.1855H277.252V28.1656H284.166V27.1855Z" fill="#227B81"/>
<path d="M373.667 65.9767L372.83 82.3076L373.943 82.3517L374.78 66.0208L373.667 65.9767Z" fill="#227B81"/>
<path d="M371.515 31.582H243.839L231.959 265.396H359.635L371.515 31.582Z" fill="#227B81"/>
<path opacity="0.56" d="M367.707 34.7979H240.031L228.15 268.611H355.826L367.707 34.7979Z" fill="#FAFAFA"/>
<path opacity="0.07" d="M363.898 38.0039H236.222L224.331 271.817H352.007L363.898 38.0039Z" fill="#227B81"/>
<path d="M349.366 139.981H240.387L239.479 157.87H348.458L349.366 139.981Z" fill="white"/>
<path d="M300.32 126.927H241.048L240.647 134.929H299.919L300.32 126.927Z" fill="#227B81"/>
<path d="M346.911 188.263H237.932L237.023 206.152H346.002L346.911 188.263Z" fill="white"/>
<path opacity="0.47" d="M326.926 230.312H253.643L252.55 251.75H325.834L326.926 230.312Z" fill="#227B81"/>
<path d="M322.025 255.08H248.741C248.709 255.087 248.676 255.087 248.644 255.08C248.633 255.052 248.633 255.022 248.644 254.994L249.726 233.546C249.726 233.532 249.729 233.517 249.736 233.504C249.742 233.49 249.752 233.478 249.764 233.469C249.777 233.459 249.791 233.451 249.807 233.447C249.822 233.442 249.839 233.44 249.856 233.442H323.139C323.153 233.436 323.168 233.433 323.183 233.433C323.198 233.433 323.213 233.436 323.226 233.442C323.234 233.453 323.238 233.466 323.238 233.48C323.238 233.493 323.234 233.506 323.226 233.518L322.166 255.013C322.153 255.035 322.132 255.054 322.107 255.066C322.082 255.078 322.053 255.082 322.025 255.08ZM248.871 254.851H321.895L322.977 233.632H249.953L248.871 254.851Z" fill="white"/>
<path d="M287.52 175.208H238.592L238.191 183.22H287.109L287.52 175.208Z" fill="#227B81"/>
<path d="M325.531 82.194C325.251 87.4003 323.146 92.4028 319.504 96.5148C316.808 99.6207 313.339 102.142 309.363 103.886C305.386 105.629 301.009 106.548 296.565 106.573C292.975 106.597 289.417 105.974 286.111 104.743C282.804 103.512 279.819 101.699 277.34 99.4149C274.86 97.131 272.939 94.4249 271.694 91.4632C270.449 88.5016 269.906 85.3471 270.1 82.194C270.48 75.6512 273.689 69.4834 279.069 64.9519C284.449 60.4204 291.594 57.8676 299.043 57.8155C302.636 57.786 306.198 58.4048 309.509 59.6337C312.819 60.8626 315.808 62.6754 318.29 64.9601C320.773 67.2449 322.696 69.953 323.941 72.9172C325.187 75.8814 325.728 79.0387 325.531 82.194Z" fill="white"/>
<path d="M328.138 62.9161C328.068 64.3004 327.508 65.6309 326.537 66.7223C325.818 67.5472 324.895 68.2169 323.837 68.6803C322.78 69.1437 321.616 69.3885 320.434 69.3961C319.29 69.4022 318.16 69.1617 317.146 68.6956C316.131 68.2295 315.262 67.552 314.613 66.7223C313.755 65.601 313.33 64.2664 313.401 62.9161C313.506 61.1789 314.36 59.5423 315.79 58.34C317.219 57.1376 319.116 56.4601 321.094 56.4456C322.049 56.4379 322.995 56.6022 323.874 56.9282C324.753 57.2543 325.547 57.7352 326.207 58.3414C326.867 58.9476 327.379 59.6663 327.711 60.453C328.043 61.2398 328.188 62.078 328.138 62.9161Z" fill="#227B81"/>
<path d="M252.127 148.926C252.075 149.693 251.695 150.414 251.062 150.943C250.43 151.473 249.592 151.772 248.719 151.781C248.297 151.785 247.879 151.713 247.49 151.57C247.101 151.427 246.75 151.215 246.458 150.947C246.166 150.679 245.939 150.362 245.792 150.014C245.645 149.667 245.581 149.296 245.603 148.926C245.65 148.158 246.029 147.434 246.662 146.903C247.296 146.373 248.136 146.075 249.011 146.071C249.432 146.068 249.85 146.141 250.238 146.285C250.626 146.429 250.977 146.641 251.269 146.908C251.561 147.175 251.787 147.492 251.935 147.839C252.083 148.186 252.148 148.556 252.127 148.926Z" fill="#263238"/>
<path d="M266.713 148.926C266.664 149.694 266.284 150.416 265.651 150.946C265.018 151.476 264.179 151.775 263.305 151.781C262.884 151.784 262.467 151.711 262.079 151.567C261.692 151.423 261.342 151.211 261.051 150.944C260.76 150.676 260.534 150.359 260.388 150.012C260.242 149.665 260.177 149.296 260.2 148.926C260.246 148.159 260.624 147.437 261.255 146.907C261.886 146.376 262.724 146.078 263.597 146.071C264.019 146.067 264.437 146.139 264.826 146.282C265.215 146.426 265.566 146.638 265.858 146.905C266.15 147.173 266.377 147.49 266.524 147.838C266.671 148.185 266.735 148.556 266.713 148.926Z" fill="#263238"/>
<path d="M281.309 148.926C281.26 149.694 280.88 150.416 280.247 150.946C279.614 151.476 278.775 151.775 277.901 151.781C277.48 151.784 277.062 151.711 276.674 151.567C276.286 151.423 275.935 151.211 275.643 150.944C275.352 150.677 275.125 150.36 274.977 150.013C274.83 149.666 274.764 149.296 274.785 148.926C274.834 148.159 275.214 147.436 275.847 146.906C276.48 146.376 277.319 146.078 278.193 146.071C278.615 146.067 279.033 146.139 279.422 146.282C279.811 146.426 280.162 146.638 280.455 146.905C280.747 147.173 280.973 147.49 281.12 147.838C281.267 148.185 281.332 148.556 281.309 148.926Z" fill="#263238"/>
<path d="M249.672 197.207C249.62 197.974 249.239 198.695 248.607 199.225C247.974 199.754 247.137 200.054 246.263 200.062C245.842 200.065 245.425 199.992 245.036 199.848C244.648 199.705 244.297 199.493 244.006 199.225C243.714 198.958 243.487 198.641 243.34 198.294C243.192 197.947 243.127 197.577 243.147 197.207C243.197 196.44 243.577 195.717 244.21 195.187C244.843 194.657 245.681 194.359 246.556 194.353C246.977 194.35 247.394 194.422 247.783 194.566C248.171 194.71 248.522 194.922 248.813 195.189C249.105 195.457 249.332 195.773 249.479 196.12C249.627 196.467 249.692 196.837 249.672 197.207Z" fill="#263238"/>
<path d="M264.257 197.207C264.208 197.973 263.83 198.694 263.199 199.224C262.568 199.754 261.732 200.053 260.86 200.062C260.438 200.066 260.02 199.995 259.631 199.851C259.242 199.708 258.89 199.496 258.598 199.228C258.306 198.961 258.08 198.643 257.933 198.296C257.786 197.948 257.721 197.578 257.744 197.207C257.793 196.44 258.173 195.717 258.806 195.187C259.439 194.657 260.278 194.359 261.152 194.353C261.573 194.35 261.99 194.422 262.377 194.566C262.765 194.71 263.115 194.922 263.406 195.19C263.697 195.457 263.922 195.774 264.069 196.121C264.215 196.468 264.279 196.838 264.257 197.207Z" fill="#263238"/>
<path d="M278.885 197.207C278.836 197.975 278.456 198.697 277.823 199.227C277.19 199.758 276.351 200.056 275.477 200.062C275.056 200.064 274.639 199.99 274.252 199.846C273.864 199.701 273.514 199.489 273.223 199.222C272.931 198.955 272.704 198.639 272.556 198.293C272.408 197.946 272.342 197.577 272.361 197.207C272.413 196.441 272.793 195.72 273.426 195.19C274.058 194.66 274.896 194.361 275.769 194.353C276.191 194.348 276.609 194.42 276.998 194.563C277.387 194.707 277.738 194.919 278.03 195.186C278.322 195.454 278.549 195.771 278.696 196.119C278.843 196.467 278.907 196.837 278.885 197.207Z" fill="#263238"/>
<path d="M293.449 197.207C293.397 197.974 293.016 198.695 292.383 199.225C291.751 199.754 290.914 200.054 290.04 200.062C289.619 200.064 289.203 199.99 288.815 199.846C288.428 199.701 288.078 199.489 287.786 199.222C287.495 198.955 287.268 198.639 287.12 198.293C286.972 197.946 286.905 197.577 286.924 197.207C286.976 196.44 287.357 195.72 287.989 195.19C288.622 194.66 289.459 194.361 290.332 194.353C290.754 194.35 291.171 194.422 291.559 194.566C291.948 194.71 292.298 194.922 292.59 195.189C292.882 195.457 293.108 195.773 293.256 196.12C293.404 196.467 293.469 196.837 293.449 197.207Z" fill="#263238"/>
<path d="M308.099 197.207C308.047 197.974 307.666 198.695 307.034 199.225C306.402 199.754 305.564 200.054 304.691 200.062C304.269 200.066 303.851 199.995 303.462 199.851C303.073 199.708 302.722 199.496 302.429 199.228C302.137 198.961 301.911 198.643 301.764 198.296C301.617 197.948 301.552 197.578 301.575 197.207C301.624 196.44 302.004 195.717 302.637 195.187C303.27 194.657 304.109 194.359 304.983 194.353C305.404 194.35 305.822 194.422 306.21 194.566C306.598 194.71 306.949 194.922 307.241 195.189C307.532 195.457 307.759 195.773 307.907 196.12C308.054 196.467 308.12 196.837 308.099 197.207Z" fill="#263238"/>
<path d="M305.885 80.9246C310.414 77.0298 310.654 70.787 306.422 66.9809C302.189 63.1748 295.087 63.2466 290.558 67.1413C286.03 71.0361 285.789 77.2788 290.022 81.085C294.254 84.8911 301.356 84.8193 305.885 80.9246Z" fill="#227B81"/>
<path d="M319.504 96.5147C316.808 99.6207 313.339 102.142 309.363 103.886C305.386 105.629 301.009 106.548 296.566 106.573C292.257 106.605 288.006 105.704 284.187 103.95C280.368 102.196 277.098 99.6425 274.666 96.5147C279.925 91.9092 288.245 88.9023 297.464 88.9023C306.682 88.9023 314.711 91.9092 319.504 96.5147Z" fill="#227B81"/>
<path opacity="0.1" d="M305.885 80.9246C310.414 77.0298 310.654 70.787 306.422 66.9809C302.189 63.1748 295.087 63.2466 290.558 67.1413C286.03 71.0361 285.789 77.2788 290.022 81.085C294.254 84.8911 301.356 84.8193 305.885 80.9246Z" fill="white"/>
<path opacity="0.1" d="M319.504 96.5147C316.808 99.6207 313.339 102.142 309.363 103.886C305.386 105.629 301.009 106.548 296.566 106.573C292.257 106.605 288.006 105.704 284.187 103.95C280.368 102.196 277.098 99.6425 274.666 96.5147C279.925 91.9092 288.245 88.9023 297.464 88.9023C306.682 88.9023 314.711 91.9092 319.504 96.5147Z" fill="white"/>
<path d="M160.309 162.182C159.281 164.161 158.199 166.34 157.258 168.452C156.317 170.565 155.354 172.744 154.521 174.913C152.82 179.189 151.524 183.581 150.647 188.045L150.409 189.443C150.386 189.683 150.412 189.925 150.485 190.157C150.74 190.946 151.142 191.692 151.675 192.365C153.064 194.107 154.676 195.703 156.479 197.122C158.38 198.677 160.373 200.141 162.452 201.509C164.529 202.917 166.715 204.288 168.868 205.582L166.845 208.922C161.703 206.951 156.823 204.491 152.292 201.585C149.874 200.035 147.692 198.218 145.8 196.18C144.678 194.967 143.803 193.593 143.214 192.117C142.871 191.196 142.696 190.232 142.694 189.263C142.694 189.034 142.694 188.701 142.694 188.539V188.073L142.803 187.122C143.423 182.164 144.608 177.274 146.341 172.525C147.185 170.184 148.083 167.853 149.111 165.579C150.138 163.304 151.199 161.078 152.508 158.766L160.309 162.182Z" fill="#E58A7B"/>
<path d="M167.342 204.991L174.991 201.585L173.011 208.969C173.011 208.969 167.764 210.263 165.329 208.017L167.342 204.991Z" fill="#E58A7B"/>
<path d="M181.992 202.793L179.958 208.902L173.012 208.969L174.992 201.585L181.992 202.793Z" fill="#E58A7B"/>
<path d="M192.79 126.556C193.199 127.874 193.769 129.15 194.489 130.362C194.279 130.572 194.008 130.728 193.705 130.813C193.402 130.898 193.078 130.91 192.769 130.847L192.79 126.556Z" fill="#DF5753"/>
<path d="M192.563 126.613C193.012 126.613 193.375 126.123 193.375 125.519C193.375 124.915 193.012 124.425 192.563 124.425C192.115 124.425 191.752 124.915 191.752 125.519C191.752 126.123 192.115 126.613 192.563 126.613Z" fill="#263238"/>
<path d="M192.325 124.464L193.97 124.055C193.97 124.055 193.169 125.178 192.325 124.464Z" fill="#263238"/>
<path d="M171.66 133.54C172.644 137.965 173.629 146.081 170.102 149.041C170.102 149.041 171.487 153.532 180.846 153.532C191.136 153.532 185.758 149.041 185.758 149.041C180.143 147.861 180.283 144.197 181.268 140.753L171.66 133.54Z" fill="#E58A7B"/>
<path d="M168.922 123.454C169.441 130.847 169.484 133.988 173.726 137.784C180.12 143.493 190.335 141.324 192.336 133.978C194.143 127.317 192.996 116.355 184.762 113.415C182.955 112.76 180.987 112.522 179.046 112.722C177.104 112.923 175.253 113.555 173.667 114.56C172.081 115.565 170.813 116.91 169.983 118.466C169.153 120.022 168.787 121.739 168.922 123.454Z" fill="#E58A7B"/>
<path d="M169.755 115.138C165.536 116.489 159.909 115.48 162.116 126.927C164.454 139.05 160.861 143.037 160.861 143.037C160.861 143.037 176.864 146.034 193.202 142.856C193.202 142.856 188.214 135.187 189.61 129.535C191.395 122.398 189.989 119.762 189.989 119.762C189.989 119.762 175.685 113.235 169.755 115.138Z" fill="#263238"/>
<path d="M187.608 127.308C187.613 128.714 188.071 130.09 188.928 131.276C190.075 132.817 191.428 132.228 191.763 130.591C192.066 129.154 191.839 126.613 190.378 125.624C188.918 124.634 187.63 125.605 187.608 127.308Z" fill="#E58A7B"/>
<path d="M166.088 116.384C164.876 113.387 170.654 108.772 182.88 110.675C195.107 112.578 195.637 121.532 195.637 121.532L193.17 118.944L193.278 121.665L180.716 123.787L166.088 116.384Z" fill="#263238"/>
<path d="M167.126 149.545C167.053 149.111 167.177 148.669 167.47 148.313C167.763 147.958 168.202 147.717 168.694 147.642C172.503 147.09 181.159 145.967 185.509 146.5C188.755 146.9 189.599 148.556 189.739 149.916C189.761 150.155 189.725 150.394 189.633 150.619C189.541 150.844 189.395 151.049 189.206 151.22C189.016 151.392 188.787 151.525 188.534 151.612C188.281 151.699 188.009 151.737 187.738 151.724L168.933 150.982C168.489 150.962 168.067 150.809 167.738 150.547C167.409 150.285 167.192 149.931 167.126 149.545Z" fill="#227B81"/>
<path opacity="0.6" d="M167.126 149.545C167.053 149.111 167.177 148.669 167.47 148.313C167.763 147.958 168.202 147.717 168.694 147.642C172.503 147.09 181.159 145.967 185.509 146.5C188.755 146.9 189.599 148.556 189.739 149.916C189.761 150.155 189.725 150.394 189.633 150.619C189.541 150.844 189.395 151.049 189.206 151.22C189.016 151.392 188.787 151.525 188.534 151.612C188.281 151.699 188.009 151.737 187.738 151.724L168.933 150.982C168.489 150.962 168.067 150.809 167.738 150.547C167.409 150.285 167.192 149.931 167.126 149.545Z" fill="black"/>
<path d="M178 315.78L184.979 320.043L196.654 306.122L189.675 301.868L178 315.78Z" fill="#E58A7B"/>
<path d="M161.727 315.505L169.095 319.197L179.428 304.476L172.06 300.784L161.727 315.505Z" fill="#E58A7B"/>
<path d="M196.642 306.122L190.626 313.296L183.647 309.043L189.663 301.868L196.642 306.122Z" fill="#CF6F64"/>
<path d="M172.049 300.784L179.428 304.486L174.105 312.069L166.726 308.368L172.049 300.784Z" fill="#CF6F64"/>
<path d="M183.886 196.02C183.886 196.02 211.131 226.212 206.013 255.091C201.891 278.414 177.979 309.996 177.979 309.996L166.737 305.086C174.661 291.122 181.423 276.671 186.97 261.847C188.681 257.245 189.18 252.361 188.43 247.564C187.68 242.767 185.701 238.183 182.642 234.157C168.836 216.43 146.72 226.983 161.597 196.02H183.886Z" fill="#227B81"/>
<path opacity="0.6" d="M183.886 196.02C183.886 196.02 211.131 226.212 206.013 255.091C201.891 278.414 177.979 309.996 177.979 309.996L166.737 305.086C174.661 291.122 181.423 276.671 186.97 261.847C188.681 257.245 189.18 252.361 188.43 247.564C187.68 242.767 185.701 238.183 182.642 234.157C168.836 216.43 146.72 226.983 161.597 196.02H183.886Z" fill="black"/>
<path opacity="0.4" d="M197.249 215.412L193.289 211.948C193.289 212.224 200.96 253.873 203.114 265.577C204.384 262.158 205.357 258.659 206.024 255.11C208.556 240.942 203.265 226.469 197.249 215.412Z" fill="black"/>
<path d="M196.047 196.02C196.047 196.02 228.854 233.967 229.784 256.719C230.552 275.749 194.078 312.622 194.078 312.622L183.475 306.589C183.475 306.589 204.822 280.403 210.2 259.012C208.123 237.811 164.193 196.02 164.193 196.02H196.047Z" fill="#227B81"/>
<path opacity="0.6" d="M196.047 196.02C196.047 196.02 228.854 233.967 229.784 256.719C230.552 275.749 194.078 312.622 194.078 312.622L183.475 306.589C183.475 306.589 204.822 280.403 210.2 259.012C208.123 237.811 164.193 196.02 164.193 196.02H196.047Z" fill="black"/>
<path d="M155.462 150.735C151.956 151.468 148.591 162.677 148.591 162.677L162.3 170.727C162.3 170.727 166.866 161.859 165.264 157.977C163.609 153.933 159.865 149.812 155.462 150.735Z" fill="#227B81"/>
<path opacity="0.2" d="M158.146 157.958L157.193 167.73L162.29 170.737C163.697 167.951 164.739 165.033 165.395 162.04L158.146 157.958Z" fill="black"/>
<path d="M200.105 150.953C200.105 150.953 204.152 152.2 196.048 196.009H161.575C162.159 183.639 162.17 176.026 155.462 150.734C160.289 149.859 165.181 149.293 170.101 149.04C175.314 148.712 180.546 148.712 185.758 149.04C192.488 149.583 200.105 150.953 200.105 150.953Z" fill="#227B81"/>
<path d="M203.611 157.956C204.39 159.859 205.212 161.905 206.078 163.875C206.943 165.845 207.766 167.871 208.642 169.87L211.293 175.845L211.964 177.339L212.31 178.081L212.472 178.453C212.472 178.519 212.472 178.519 212.472 178.51C212.275 178.265 212.015 178.063 211.715 177.92C211.287 177.698 210.804 177.571 210.308 177.549C209.896 177.537 209.486 177.606 209.107 177.748C208.61 177.948 208.61 178.034 208.62 178.024C208.71 177.961 208.79 177.887 208.858 177.806C209.457 177.114 209.976 176.371 210.406 175.588C210.914 174.713 211.401 173.78 211.888 172.838C212.84 170.935 213.717 168.966 214.593 166.977C215.469 164.988 216.303 162.98 217.114 160.954L219.581 154.883L223.747 155.834C222.924 160.173 221.864 164.398 220.587 168.699C219.971 170.84 219.246 172.962 218.423 175.103C218.012 176.178 217.558 177.244 217.038 178.338C216.497 179.526 215.83 180.667 215.047 181.745C214.76 182.108 214.441 182.451 214.095 182.773C213.543 183.297 212.872 183.715 212.126 184C211.464 184.25 210.747 184.367 210.027 184.343C209.221 184.316 208.435 184.11 207.744 183.743C206.929 183.296 206.252 182.678 205.775 181.945C205.612 181.697 205.472 181.45 205.374 181.269L205.169 180.908L204.758 180.165L203.935 178.69C202.853 176.711 201.771 174.713 200.83 172.705C199.889 170.697 198.893 168.661 197.963 166.615C197.032 164.57 196.199 162.524 195.409 160.316L203.611 157.956Z" fill="#E58A7B"/>
<path d="M200.105 150.953C204.249 151.819 208.912 162.59 208.912 162.59L196.588 171.811C196.588 171.811 188.614 160.069 190.226 156.196C191.903 152.162 194.695 149.821 200.105 150.953Z" fill="#227B81"/>
<path d="M221.54 151.477L225.868 148.299L228.876 152.419L226.658 155.854C226.658 155.854 223.13 158.709 220.014 157.253C219.52 156.275 219.401 155.182 219.676 154.14C219.952 153.098 220.606 152.163 221.54 151.477Z" fill="#E58A7B"/>
<path d="M233.679 148.308L233.355 149.346L226.506 150.354L225.835 148.299L233.679 148.308Z" fill="#E58A7B"/>
<path d="M194.922 313.106L182.565 306.084L184.784 302.696L198.666 310.204L194.922 313.106Z" fill="#227B81"/>
<path d="M173.931 318.702C172.847 318.585 171.805 318.26 170.88 317.75C170.842 317.738 170.808 317.716 170.785 317.687C170.762 317.658 170.749 317.624 170.749 317.588C170.749 317.553 170.762 317.518 170.785 317.489C170.808 317.46 170.842 317.438 170.88 317.426C171.215 317.331 174.126 316.541 174.97 317.15C175.065 317.22 175.137 317.31 175.179 317.412C175.22 317.514 175.23 317.624 175.208 317.731C175.193 317.902 175.128 318.067 175.02 318.211C174.912 318.354 174.765 318.47 174.591 318.549C174.388 318.647 174.162 318.699 173.931 318.702ZM171.497 317.655C172.849 318.264 173.931 318.483 174.45 318.254C174.563 318.199 174.659 318.12 174.727 318.023C174.795 317.926 174.834 317.816 174.84 317.702C174.84 317.55 174.84 317.484 174.743 317.445C174.288 317.122 172.665 317.369 171.475 317.655H171.497Z" fill="#263238"/>
<path d="M170.956 317.818C170.899 317.817 170.845 317.796 170.805 317.761C170.789 317.734 170.78 317.705 170.78 317.675C170.78 317.645 170.789 317.616 170.805 317.589C170.805 317.504 171.508 315.439 172.612 314.973C172.753 314.916 172.906 314.887 173.061 314.887C173.216 314.887 173.369 314.916 173.51 314.973C173.662 315.015 173.793 315.1 173.883 315.216C173.974 315.331 174.017 315.47 174.008 315.61C173.932 316.466 171.952 317.646 171.043 317.846L170.956 317.818ZM173.055 315.22C172.95 315.223 172.847 315.246 172.752 315.287C172.082 315.572 171.53 316.685 171.259 317.361C172.211 317.009 173.521 316.076 173.564 315.553C173.564 315.467 173.564 315.363 173.315 315.268C173.234 315.229 173.146 315.203 173.055 315.191V315.22Z" fill="#263238"/>
<path d="M189.372 322.812C188.149 322.812 186.45 321.432 185.52 320.585C185.496 320.556 185.483 320.521 185.483 320.485C185.483 320.45 185.496 320.415 185.52 320.385C185.541 320.355 185.572 320.33 185.608 320.313C185.644 320.296 185.685 320.288 185.726 320.29C186.158 320.29 189.913 320.785 190.443 321.718C190.499 321.801 190.529 321.897 190.529 321.994C190.529 322.091 190.499 322.186 190.443 322.27C190.364 322.415 190.243 322.54 190.094 322.633C189.944 322.726 189.77 322.784 189.588 322.802L189.372 322.812ZM186.234 320.718C187.597 321.879 188.798 322.526 189.48 322.45C189.599 322.437 189.713 322.397 189.811 322.336C189.909 322.275 189.989 322.193 190.043 322.098C190.067 322.066 190.08 322.028 190.08 321.989C190.08 321.95 190.067 321.912 190.043 321.879C189.761 321.366 187.76 320.928 186.234 320.718Z" fill="#263238"/>
<path d="M186.353 320.672C186.11 320.678 185.867 320.662 185.628 320.624C185.595 320.62 185.563 320.608 185.537 320.589C185.51 320.571 185.489 320.547 185.477 320.519C185.461 320.491 185.452 320.46 185.452 320.429C185.452 320.398 185.461 320.367 185.477 320.339C185.542 320.272 187.002 318.721 188.387 318.616C188.779 318.589 189.168 318.699 189.469 318.921C189.891 319.244 189.87 319.53 189.761 319.711C189.491 320.358 187.619 320.672 186.353 320.672ZM186.072 320.32C187.284 320.377 189.22 320.025 189.469 319.558C189.469 319.558 189.556 319.406 189.275 319.197C189.163 319.111 189.032 319.047 188.89 319.007C188.749 318.968 188.6 318.955 188.452 318.968C187.519 319.197 186.689 319.672 186.072 320.329V320.32Z" fill="#263238"/>
<path d="M171.248 316.79L162.072 314.506C161.914 314.464 161.744 314.474 161.594 314.536C161.444 314.597 161.326 314.705 161.261 314.839L158.166 320.957C158.094 321.114 158.06 321.282 158.066 321.452C158.073 321.621 158.12 321.787 158.205 321.939C158.29 322.09 158.41 322.225 158.558 322.333C158.707 322.441 158.879 322.52 159.064 322.565C162.31 323.308 163.869 323.517 167.904 324.535C170.393 325.144 173.942 326.276 177.372 327.133C180.802 327.989 181.949 325.049 180.618 324.421C174.602 321.623 174.126 319.663 172.481 317.57C172.187 317.191 171.75 316.915 171.248 316.79Z" fill="#227B81"/>
<path d="M185.769 319.472L177.935 314.715C177.802 314.63 177.639 314.59 177.475 314.604C177.311 314.618 177.159 314.685 177.048 314.791L171.854 319.701C171.728 319.828 171.633 319.977 171.577 320.138C171.521 320.3 171.505 320.47 171.53 320.637C171.554 320.805 171.619 320.966 171.72 321.109C171.821 321.253 171.955 321.376 172.114 321.471C174.873 323.098 176.301 323.754 179.753 325.857C181.917 327.151 186.104 330.025 189.026 331.814C191.947 333.603 194.122 331.148 193.083 330.177C188.43 325.81 187.413 323.069 186.645 320.586C186.512 320.135 186.201 319.741 185.769 319.472Z" fill="#227B81"/>
<path d="M179.417 310.622L165.297 304.447L166.758 301.078L181.841 307.587L179.417 310.622Z" fill="#227B81"/>
<path d="M161.056 194.23L159.865 196.97C159.746 197.18 160.028 197.398 160.428 197.398H196.221C196.534 197.398 196.794 197.265 196.816 197.094L197.119 194.372C197.119 194.192 196.87 194.03 196.534 194.03H161.618C161.513 194.021 161.407 194.035 161.309 194.07C161.211 194.104 161.124 194.159 161.056 194.23Z" fill="#227B81"/>
<path opacity="0.4" d="M161.056 194.23L159.865 196.97C159.746 197.18 160.028 197.398 160.428 197.398H196.221C196.534 197.398 196.794 197.265 196.816 197.094L197.119 194.372C197.119 194.192 196.87 194.03 196.534 194.03H161.618C161.513 194.021 161.407 194.035 161.309 194.07C161.211 194.104 161.124 194.159 161.056 194.23Z" fill="#0F0202"/>
<path d="M166.693 197.665H165.752C165.568 197.665 165.427 197.579 165.438 197.475L165.882 193.944C165.882 193.849 166.055 193.764 166.239 193.764H167.18C167.364 193.764 167.505 193.849 167.494 193.944L167.05 197.475C167.039 197.579 166.877 197.665 166.693 197.665Z" fill="#227B81"/>
<path d="M188.765 197.665H187.835C187.651 197.665 187.51 197.579 187.521 197.475L187.954 193.944C187.954 193.849 188.138 193.764 188.322 193.764H189.252C189.436 193.764 189.588 193.849 189.566 193.944L189.133 197.475C189.079 197.579 188.96 197.665 188.765 197.665Z" fill="#227B81"/>
<g style="mix-blend-mode:multiply">
<path d="M165.871 358.809C181.88 358.809 194.857 357.983 194.857 356.963C194.857 355.944 181.88 355.117 165.871 355.117C149.862 355.117 136.884 355.944 136.884 356.963C136.884 357.983 149.862 358.809 165.871 358.809Z" fill="#F5F5F5"/>
</g>
<path d="M183.529 354.356C178.4 353.043 172.709 351.358 169.268 349.598C169.17 349.541 169.062 349.512 168.965 349.465V329.045H179.341C180.129 329.004 180.869 328.7 181.41 328.195C181.951 327.69 182.253 327.022 182.253 326.328C182.253 325.634 181.951 324.966 181.41 324.461C180.869 323.956 180.129 323.652 179.341 323.611H169.019V230.531H162.787V323.611H152.475C152.054 323.589 151.632 323.643 151.236 323.77C150.839 323.897 150.477 324.093 150.17 324.348C149.863 324.602 149.618 324.909 149.451 325.25C149.284 325.59 149.198 325.957 149.198 326.328C149.198 326.699 149.284 327.066 149.451 327.407C149.618 327.747 149.863 328.054 150.17 328.308C150.477 328.563 150.839 328.759 151.236 328.886C151.632 329.013 152.054 329.067 152.475 329.045H162.787V349.436C162.689 349.436 162.592 349.512 162.494 349.569C159 351.358 153.352 353.043 148.223 354.327C147.876 354.419 147.579 354.618 147.384 354.886C147.19 355.154 147.111 355.475 147.162 355.79C147.213 356.105 147.39 356.394 147.662 356.604C147.934 356.814 148.283 356.931 148.645 356.934H183.107C183.452 356.914 183.78 356.789 184.034 356.582C184.288 356.375 184.454 356.097 184.503 355.795C184.552 355.493 184.482 355.186 184.305 354.924C184.128 354.662 183.854 354.461 183.529 354.356Z" fill="#4E0D0D"/>
<path d="M185.12 221.055H146.644C143.548 221.055 141.039 223.261 141.039 225.984V236.042C141.039 238.764 143.548 240.971 146.644 240.971H185.12C188.215 240.971 190.725 238.764 190.725 236.042V225.984C190.725 223.261 188.215 221.055 185.12 221.055Z" fill="#227B81"/>
<path d="M146.286 240.979V242.711C146.286 244.139 148.05 245.3 150.214 245.3H181.592C183.756 245.3 185.519 244.139 185.519 242.711V240.979H146.286Z" fill="#227B81"/>
<path opacity="0.3" d="M146.286 240.979V242.711C146.286 244.139 148.05 245.3 150.214 245.3H181.592C183.756 245.3 185.519 244.139 185.519 242.711V240.979H146.286Z" fill="#0F0202"/>
<path d="M398.533 109.799L387.8 105.993C387.8 105.993 373.636 128.707 369.579 129.858C364.061 131.418 352.635 135.757 345.862 136.519C344.942 137.47 343.438 140.43 343.579 141.505C352.678 144.179 372.674 140.629 376.958 137.832C386.707 131.485 398.533 109.799 398.533 109.799Z" fill="#E58A7B"/>
<path d="M401.834 104.633C403.835 111.132 392.994 124.206 392.994 124.206L378.787 117.203C378.787 117.203 381.449 111.827 384.695 106.355C389.899 97.5154 399.551 97.2204 401.834 104.633Z" fill="#227B81"/>
<path opacity="0.2" d="M401.834 104.633C403.835 111.132 392.994 124.206 392.994 124.206L378.787 117.203C378.787 117.203 381.449 111.827 384.695 106.355C389.899 97.5154 399.551 97.2204 401.834 104.633Z" fill="black"/>
<path opacity="0.2" d="M384.424 120.001L390.018 122.76L391.002 107.659C387.746 109.857 385.452 116.48 384.424 120.001Z" fill="black"/>
<path d="M392.485 99.742C392.485 99.742 381.427 121.38 387.876 161.668H431.448C432.141 155.788 429.847 127.089 438.146 99.3804C433.366 98.5589 428.53 98.0153 423.668 97.7532C417.503 97.439 411.321 97.439 405.155 97.7532C400.881 98.1349 396.646 98.7997 392.485 99.742Z" fill="#227B81"/>
<path opacity="0.2" d="M392.485 99.742C392.485 99.742 381.427 121.38 387.876 161.668H431.448C432.141 155.788 429.847 127.089 438.146 99.3804C433.366 98.5589 428.53 98.0153 423.668 97.7532C417.503 97.439 411.321 97.439 405.155 97.7532C400.881 98.1349 396.646 98.7997 392.485 99.742Z" fill="black"/>
<g style="mix-blend-mode:multiply">
<path d="M382.379 351.216C382.314 352.244 398.836 353.072 419.275 353.072C439.714 353.072 456.355 352.244 456.42 351.216C456.485 350.188 439.974 349.37 419.524 349.37C399.074 349.37 382.455 350.198 382.379 351.216Z" fill="#E8ECF1"/>
</g>
<path d="M411.464 324.214L403.736 326.845L410.393 341.968L418.121 339.337L411.464 324.214Z" fill="#E58A7B"/>
<path d="M445.925 343.898H437.777L434.791 327.312H442.938L445.925 343.898Z" fill="#E58A7B"/>
<path d="M437.215 343.07H446.368C446.527 343.071 446.681 343.121 446.801 343.211C446.922 343.302 447.003 343.427 447.028 343.565L448.208 349.931C448.233 350.091 448.218 350.253 448.165 350.408C448.112 350.562 448.022 350.704 447.901 350.825C447.78 350.946 447.63 351.043 447.463 351.109C447.296 351.174 447.114 351.208 446.931 351.206C443.739 351.158 442.203 350.987 438.178 350.987C435.7 350.987 430.604 351.216 427.163 351.216C423.722 351.216 423.495 348.247 424.912 347.971C431.274 346.762 433.741 345.116 435.862 343.518C436.236 343.229 436.717 343.07 437.215 343.07Z" fill="#263238"/>
<path d="M410.165 340.616L418.821 338.389C418.975 338.351 419.14 338.36 419.287 338.416C419.435 338.471 419.557 338.569 419.632 338.694L422.878 344.403C422.954 344.548 422.992 344.706 422.991 344.865C422.99 345.024 422.949 345.181 422.872 345.325C422.795 345.47 422.683 345.597 422.544 345.699C422.405 345.801 422.242 345.875 422.067 345.916C418.918 346.677 416.808 347.144 412.87 348.152C410.154 348.847 407.384 349.979 404.701 350.731C402.84 351.254 398.468 351.273 396.207 351.273C392.864 351.273 392.117 348.171 393.556 348.029C397.181 347.676 397.668 347.838 399.669 346.953C402.945 345.694 405.913 343.891 408.412 341.644C408.883 341.171 409.488 340.817 410.165 340.616Z" fill="#263238"/>
<path d="M347.225 136.481L338.266 133.179L334.576 141.914C338.248 142.406 341.984 142.406 345.656 141.914L347.225 136.481Z" fill="#E58A7B"/>
<path d="M331.601 132.951L331.363 138.756L334.577 141.896L338.266 133.161L331.601 132.951Z" fill="#E58A7B"/>
<path d="M412.525 325.499L404.772 328.131L408.206 335.951L415.958 333.319L412.525 325.499Z" fill="#CF6F64"/>
<path d="M442.938 327.312H434.791L436.338 335.867H444.486L442.938 327.312Z" fill="#CF6F64"/>
<path opacity="0.2" d="M386.491 150.774C386.654 152.496 386.837 154.257 387.076 156.064L419.471 146.815C424.53 145.497 428.926 142.701 431.935 138.889C432.065 136.348 432.227 133.675 432.476 130.887C432.584 129.535 432.714 128.146 432.855 126.738C432.996 125.33 433.19 123.769 433.396 122.266L386.491 150.774Z" fill="black"/>
<path d="M423.063 79.417C421.537 84.66 419.741 94.2611 423.669 97.7533C423.669 97.7533 420.92 103.072 409.852 103.072C399.735 103.072 405.156 97.7533 405.156 97.7533C411.886 96.364 412.005 92.044 411.117 87.9523L423.063 79.417Z" fill="#E58A7B"/>
<path d="M418.193 82.9004L411.128 87.9531C411.347 88.8933 411.474 89.8484 411.507 90.8077C413.573 92.6157 417.717 88.0387 418.139 85.6979C418.354 84.7764 418.372 83.8278 418.193 82.9004Z" fill="#CF6F64"/>
<path d="M398.977 79.3504C399.469 80.0998 400.131 80.7519 400.922 81.266C401.713 81.7801 402.617 82.1451 403.576 82.3383C406.172 82.8426 407.471 80.7397 406.757 78.6272C406.118 76.7241 403.987 74.1645 401.347 74.6022C400.781 74.7046 400.252 74.9248 399.803 75.2441C399.354 75.5635 398.999 75.9728 398.767 76.4378C398.535 76.9027 398.433 77.4098 398.469 77.9166C398.506 78.4233 398.68 78.915 398.977 79.3504Z" fill="#CF6F64"/>
<path d="M403.273 62.5742C399.226 64.2013 397.798 78.3413 402.883 80.4347C407.969 82.5281 410.933 59.4816 403.273 62.5742Z" fill="#263238"/>
<path d="M424.296 71.5279C423.323 78.6264 423.214 82.8037 418.886 86.4386C417.545 87.6448 415.851 88.5016 413.991 88.9145C412.131 89.3273 410.178 89.2801 408.346 88.778C406.515 88.2759 404.877 87.3385 403.613 86.0693C402.349 84.8001 401.509 83.2484 401.185 81.5857C399.876 75.2103 401.683 64.6767 409.776 61.8506C411.476 61.191 413.347 60.9434 415.193 61.1334C417.039 61.3235 418.793 61.9443 420.274 62.9315C421.756 63.9187 422.91 65.2363 423.617 66.7479C424.324 68.2594 424.559 69.9097 424.296 71.5279Z" fill="#E58A7B"/>
<path d="M410.998 66.2474C416.992 64.9057 421.396 63.9923 419.816 68.3789C417.728 74.2404 415.218 79.9116 418.583 80.1685C420.639 80.3303 429.727 76.9428 428.57 73.5077C427.563 70.5199 431.816 69.7015 432.573 68.1886C435.375 62.7077 427.358 63.4308 428.786 60.1004C430.214 56.77 422.294 51.4033 417.966 54.0772C410.922 58.3972 398.836 58.3306 405.188 51.2225C409.743 46.1508 401.617 47.188 401.617 47.188C401.617 47.188 406.529 49.7476 398.263 53.7061C389.52 57.9309 397.538 69.2829 410.998 66.2474Z" fill="#263238"/>
<path d="M427.478 79.3504C426.294 80.8563 424.516 81.9213 422.49 82.3383C419.817 82.8426 418.789 80.7397 419.795 78.6272C420.694 76.7241 423.16 74.1645 425.714 74.6022C428.268 75.0399 428.852 77.4854 427.478 79.3504Z" fill="#E58A7B"/>
<path d="M387.876 161.669C387.876 161.669 380.562 219.237 379.988 241.085C379.404 263.808 404.777 334.707 404.777 334.707L417.761 329.95C417.761 329.95 402.613 265.168 404.777 242.855C407.071 218.524 416.549 161.707 416.549 161.707L387.876 161.669Z" fill="#227B81"/>
<path opacity="0.2" d="M406.054 177.474C400.222 188.112 404.149 209.151 407.309 221.616C408.51 212.814 409.938 203.261 411.29 194.421C411.161 180.833 409.96 170.337 406.054 177.474Z" fill="black"/>
<path d="M417.187 326.182C417.252 326.182 418.723 329.817 418.723 329.817L403.748 335.355L401.39 331.491L417.187 326.182Z" fill="#227B81"/>
<path d="M403.337 161.669C403.337 161.669 408.931 216.421 412.631 236.927C416.7 259.393 432.648 334.213 432.648 334.213H447.569C447.569 334.213 438.632 261.21 436.944 238.963C435.104 214.832 431.447 161.669 431.447 161.669H403.337Z" fill="#227B81"/>
<path d="M447.798 330.795C447.863 330.795 448.295 334.459 448.295 334.459H431.892L430.724 330.253L447.798 330.795Z" fill="#227B81"/>
<path opacity="0.2" d="M442.084 326.456C442.051 326.457 442.018 326.446 441.992 326.427C441.966 326.408 441.949 326.381 441.944 326.352C441.857 325.686 433.796 259.744 432.281 239.761C430.637 218.085 427.326 170.004 427.293 169.518C427.292 169.502 427.294 169.487 427.3 169.472C427.306 169.457 427.315 169.443 427.327 169.431C427.34 169.42 427.354 169.41 427.371 169.404C427.387 169.398 427.405 169.394 427.423 169.395C427.459 169.394 427.493 169.406 427.519 169.427C427.545 169.449 427.561 169.478 427.564 169.509C427.564 169.994 430.907 218.037 432.552 239.752C434.067 259.734 442.128 325.629 442.203 326.342C442.206 326.358 442.206 326.374 442.201 326.39C442.197 326.405 442.189 326.42 442.178 326.432C442.166 326.445 442.152 326.455 442.136 326.463C442.12 326.47 442.102 326.474 442.084 326.476V326.456Z" fill="black"/>
<path d="M411.917 73.5076C411.917 74.0881 411.506 74.5543 411.073 74.5543C410.641 74.5543 410.327 74.0881 410.37 73.5076C410.413 72.9272 410.781 72.4609 411.214 72.4609C411.647 72.4609 411.961 72.9367 411.917 73.5076Z" fill="#263238"/>
<path d="M404.495 73.5076C404.495 74.0881 404.073 74.5543 403.651 74.5543C403.229 74.5543 402.904 74.0881 402.937 73.5076C402.969 72.9272 403.359 72.4609 403.792 72.4609C404.224 72.4609 404.538 72.9367 404.495 73.5076Z" fill="#263238"/>
<path d="M406.833 73.8027C405.929 75.5752 404.765 77.2356 403.37 78.7412C404.452 79.6928 406.475 79.2551 406.475 79.2551L406.833 73.8027Z" fill="#DF5753"/>
<path d="M407.027 81.681C407.002 81.681 406.977 81.6765 406.954 81.6678C406.931 81.6591 406.91 81.6463 406.893 81.6303C406.876 81.6142 406.862 81.5953 406.854 81.5745C406.845 81.5538 406.842 81.5317 406.843 81.5097C406.846 81.4634 406.869 81.4198 406.907 81.388C406.945 81.3561 406.996 81.3384 407.049 81.3384C407.876 81.3435 408.695 81.1854 409.443 80.8758C410.192 80.5663 410.853 80.1131 411.377 79.5495C411.414 79.5207 411.462 79.5049 411.512 79.5049C411.562 79.5049 411.61 79.5207 411.647 79.5495C411.682 79.5814 411.702 79.6241 411.702 79.6685C411.702 79.7128 411.682 79.7555 411.647 79.7874C411.087 80.3863 410.381 80.8673 409.581 81.1949C408.782 81.5226 407.909 81.6887 407.027 81.681Z" fill="#263238"/>
<path d="M413.237 71.7564C413.185 71.7798 413.128 71.792 413.07 71.792C413.011 71.792 412.954 71.7798 412.902 71.7564C412.497 71.5263 412.037 71.3832 411.557 71.3385C411.078 71.2939 410.593 71.349 410.143 71.4995C410.099 71.5188 410.051 71.5302 410.002 71.533C409.953 71.5358 409.904 71.5299 409.857 71.5157C409.811 71.5015 409.768 71.4793 409.732 71.4504C409.695 71.4214 409.666 71.3864 409.645 71.3473C409.605 71.2626 409.604 71.1675 409.642 71.0821C409.681 70.9968 409.756 70.9281 409.851 70.8905C410.416 70.6873 411.029 70.6072 411.638 70.6569C412.246 70.7066 412.832 70.8847 413.346 71.176C413.387 71.2008 413.422 71.2326 413.45 71.2695C413.477 71.3065 413.496 71.3478 413.505 71.3912C413.514 71.4346 413.513 71.4791 413.503 71.5222C413.492 71.5653 413.472 71.6061 413.443 71.6422C413.388 71.6968 413.317 71.7364 413.237 71.7564Z" fill="#263238"/>
<path d="M401.627 69.8537C401.57 69.8415 401.517 69.8151 401.476 69.7776C401.44 69.7466 401.411 69.7096 401.392 69.6687C401.372 69.6279 401.362 69.584 401.362 69.5397C401.362 69.4954 401.372 69.4516 401.392 69.4107C401.411 69.3699 401.44 69.3329 401.476 69.3018C401.891 68.8928 402.407 68.5735 402.985 68.3688C403.563 68.1642 404.187 68.0797 404.809 68.1219C404.858 68.1287 404.906 68.1443 404.949 68.168C404.991 68.1916 405.028 68.2226 405.056 68.2592C405.085 68.2958 405.104 68.3371 405.114 68.3806C405.123 68.4241 405.122 68.4688 405.111 68.5121C405.088 68.6002 405.029 68.6778 404.946 68.7304C404.862 68.7829 404.759 68.8068 404.657 68.7975C404.165 68.7703 403.673 68.8418 403.218 69.0067C402.762 69.1715 402.355 69.4254 402.028 69.7491C401.978 69.7972 401.915 69.8325 401.844 69.851C401.774 69.8694 401.699 69.8704 401.627 69.8537Z" fill="#263238"/>
<path d="M442.333 108.743L431.08 106.107C431.08 106.107 420.043 130.001 416.137 131.552C410.836 133.683 397.408 141.067 391.695 144.559C391.381 145.749 391.63 148.898 392.344 149.764C402.082 148.204 420.725 141.895 424.62 138.688C433.503 131.371 442.333 108.743 442.333 108.743Z" fill="#E58A7B"/>
<path d="M434.478 344.327C433.929 344.365 433.382 344.234 432.931 343.956C432.792 343.845 432.687 343.704 432.629 343.548C432.57 343.391 432.558 343.223 432.596 343.061C432.602 342.96 432.64 342.863 432.705 342.779C432.77 342.695 432.859 342.628 432.963 342.586C433.872 342.176 436.415 343.594 436.707 343.756C436.739 343.773 436.764 343.799 436.778 343.83C436.791 343.861 436.793 343.895 436.783 343.927C436.774 343.96 436.755 343.991 436.728 344.016C436.702 344.041 436.668 344.06 436.631 344.07C435.926 344.222 435.204 344.308 434.478 344.327ZM433.396 342.842C433.314 342.826 433.229 342.826 433.147 342.842C433.106 342.861 433.072 342.89 433.048 342.925C433.025 342.961 433.015 343.001 433.018 343.042C432.989 343.153 432.994 343.268 433.032 343.377C433.07 343.486 433.139 343.583 433.234 343.661C433.656 343.994 434.716 344.032 436.112 343.794C435.281 343.313 434.345 342.989 433.364 342.842H433.396Z" fill="#227B81"/>
<path d="M436.577 344.07C436.549 344.078 436.518 344.078 436.49 344.07C435.679 343.67 434.153 342.1 434.38 341.301C434.414 341.174 434.496 341.061 434.611 340.98C434.727 340.899 434.871 340.854 435.019 340.854C435.164 340.837 435.312 340.847 435.452 340.885C435.592 340.923 435.721 340.987 435.83 341.072C436.728 341.748 436.782 343.822 436.782 343.927C436.788 343.958 436.781 343.99 436.763 344.018C436.746 344.045 436.718 344.067 436.685 344.079C436.649 344.086 436.611 344.083 436.577 344.07ZM435.127 341.168H435.051C434.802 341.168 434.77 341.291 434.759 341.339C434.629 341.805 435.592 342.995 436.393 343.556C436.389 342.752 436.106 341.969 435.581 341.31C435.456 341.214 435.293 341.163 435.127 341.168Z" fill="#227B81"/>
<path d="M405.75 343.138C405.088 343.341 404.367 343.341 403.705 343.138C403.555 343.066 403.427 342.962 403.335 342.836C403.242 342.709 403.187 342.564 403.175 342.414C403.161 342.32 403.175 342.225 403.215 342.137C403.255 342.048 403.319 341.97 403.402 341.91C404.268 341.225 407.806 341.91 408.206 342.043C408.244 342.052 408.278 342.072 408.302 342.099C408.325 342.127 408.337 342.161 408.336 342.196C408.338 342.231 408.327 342.267 408.306 342.297C408.285 342.328 408.254 342.352 408.217 342.367C407.42 342.683 406.595 342.941 405.75 343.138ZM403.987 342.005C403.863 342.027 403.747 342.076 403.651 342.148C403.617 342.171 403.59 342.202 403.575 342.237C403.56 342.272 403.556 342.311 403.565 342.348C403.572 342.448 403.607 342.544 403.668 342.629C403.728 342.714 403.812 342.784 403.911 342.833C404.484 343.1 405.815 342.89 407.536 342.253C406.377 341.996 405.177 341.912 403.987 342.005Z" fill="#227B81"/>
<path d="M408.185 342.367H408.098C407.016 342.196 404.852 341.101 404.787 340.283C404.787 340.093 404.884 339.826 405.404 339.674C405.579 339.619 405.766 339.596 405.951 339.606C406.137 339.616 406.319 339.658 406.486 339.731C407.654 340.236 408.271 342.062 408.304 342.148C408.311 342.177 408.31 342.207 408.301 342.235C408.291 342.264 408.274 342.289 408.25 342.31C408.233 342.333 408.211 342.353 408.185 342.367ZM405.62 339.96H405.512C405.177 340.064 405.177 340.188 405.177 340.226C405.177 340.721 406.746 341.625 407.838 341.929C407.587 341.165 407.054 340.496 406.324 340.026C406.106 339.929 405.856 339.905 405.62 339.96Z" fill="#227B81"/>
<path d="M392.615 143.997L381.33 148.564L380.021 151.419L384.186 153.884C384.186 153.884 391.977 153.141 394.195 148.736L392.615 143.997Z" fill="#E58A7B"/>
<path d="M393.091 149.927C392.839 148.02 392.123 146.183 390.992 144.541L392.777 143.361C394.12 145.253 394.977 147.38 395.288 149.594L393.091 149.927Z" fill="#263238"/>
<path d="M395.017 145.349C395.256 145.679 395.373 146.066 395.353 146.456C395.333 146.847 395.177 147.223 394.905 147.532C394.633 147.842 394.26 148.071 393.835 148.187C393.411 148.303 392.956 148.302 392.532 148.183C392.109 148.064 391.737 147.833 391.468 147.521C391.199 147.21 391.046 146.833 391.029 146.443C391.012 146.052 391.132 145.666 391.374 145.337C391.615 145.009 391.965 144.754 392.377 144.607C392.84 144.4 393.377 144.361 393.871 144.5C394.365 144.639 394.777 144.944 395.017 145.349Z" fill="#263238"/>
<path d="M373.702 152.258L375.206 153.591L385.334 149.784L381.33 148.566L373.702 152.258Z" fill="#E58A7B"/>
<path opacity="0.2" d="M417.187 326.182C417.252 326.182 418.723 329.817 418.723 329.817L403.748 335.355L401.39 331.491L417.187 326.182Z" fill="black"/>
<path opacity="0.2" d="M447.798 330.795C447.863 330.795 448.295 334.459 448.295 334.459H431.892L430.724 330.253L447.798 330.795Z" fill="black"/>
<path d="M445.265 106.003C448.24 114.443 436.609 125.985 436.609 125.985L420.541 120.219C422.446 115.34 424.641 110.554 427.12 105.879C432.054 96.5253 442.257 97.4863 445.265 106.003Z" fill="#227B81"/>
<path opacity="0.2" d="M445.265 106.003C448.24 114.443 436.609 125.985 436.609 125.985L420.541 120.219C422.446 115.34 424.641 110.554 427.12 105.879C432.054 96.5253 442.257 97.4863 445.265 106.003Z" fill="black"/>
</svg>
